<svg width="20" height="20" viewBox="0 0 20 20" fill="none" xmlns="http://www.w3.org/2000/svg">
<g id="information-circle">
<path id="Vector (Stroke)" fill-rule="evenodd" clip-rule="evenodd" d="M10 3.125C8.17664 3.125 6.42795 3.84933 5.13864 5.13864C3.84933 6.42795 3.125 8.17664 3.125 10C3.125 10.9028 3.30283 11.7968 3.64833 12.6309C3.99383 13.4651 4.50024 14.223 5.13864 14.8614C5.77704 15.4998 6.53494 16.0062 7.36905 16.3517C8.20316 16.6972 9.09716 16.875 10 16.875C10.9028 16.875 11.7968 16.6972 12.6309 16.3517C13.4651 16.0062 14.223 15.4998 14.8614 14.8614C15.4998 14.223 16.0062 13.4651 16.3517 12.6309C16.6972 11.7968 16.875 10.9028 16.875 10C16.875 8.17664 16.1507 6.42795 14.8614 5.13864C13.572 3.84933 11.8234 3.125 10 3.125ZM4.25476 4.25476C5.77849 2.73102 7.84512 1.875 10 1.875C12.1549 1.875 14.2215 2.73102 15.7452 4.25476C17.269 5.77849 18.125 7.84512 18.125 10C18.125 11.067 17.9148 12.1235 17.5065 13.1093C17.0982 14.0951 16.4997 14.9908 15.7452 15.7452C14.9908 16.4997 14.0951 17.0982 13.1093 17.5065C12.1235 17.9148 11.067 18.125 10 18.125C8.93301 18.125 7.87647 17.9148 6.8907 17.5065C5.90493 17.0982 5.00923 16.4997 4.25476 15.7452C3.50028 14.9908 2.9018 14.0951 2.49348 13.1093C2.08516 12.1235 1.875 11.067 1.875 10C1.875 7.84512 2.73102 5.77849 4.25476 4.25476ZM9.375 6.875C9.375 6.52982 9.65482 6.25 10 6.25H10.0067C10.3518 6.25 10.6317 6.52982 10.6317 6.875V6.88167C10.6317 7.22684 10.3518 7.50667 10.0067 7.50667H10C9.65482 7.50667 9.375 7.22684 9.375 6.88167V6.875ZM9.13299 8.79766C9.34591 8.69203 9.58456 8.64929 9.82095 8.67448C10.0585 8.6998 10.2838 8.79266 10.4703 8.94207C10.6567 9.09149 10.7964 9.29119 10.8728 9.51753C10.9492 9.74388 10.9592 9.98739 10.9015 10.2192L10.3114 12.5831L10.3401 12.5687C10.6473 12.4114 11.0239 12.5329 11.1813 12.8401C11.3386 13.1473 11.2171 13.5239 10.9099 13.6813L10.8704 13.7015C10.6565 13.8085 10.4165 13.8518 10.1787 13.8265C9.94095 13.8011 9.71545 13.7081 9.52895 13.5584C9.34246 13.4088 9.2028 13.2088 9.12654 12.9821C9.05034 12.7557 9.04065 12.5121 9.09861 12.2803L9.68849 9.91744L9.6832 9.92009L9.64902 9.93673C9.33878 10.0881 8.96461 9.95925 8.81327 9.64902C8.66194 9.33878 8.79075 8.96461 9.10098 8.81327L9.13299 8.79766Z" fill="#737373"/>
</g>
</svg>
