<svg width="30" height="30" viewBox="0 0 30 30" fill="none" xmlns="http://www.w3.org/2000/svg">
<g id="parachute">
<path id="Vector" d="M26.2457 11.4404C25.8458 8.11816 22.8004 5.62207 19.2892 4.46631C20.8888 6.19775 22.0314 8.88721 22.0314 12.1875H23.2662L18.1422 17.8784C18.0323 17.8521 17.9313 17.8125 17.8126 17.8125H15.7032V12.1875H20.6251C20.6251 7.125 17.5973 3.75 15.0001 3.75C12.4029 3.75 9.37512 7.125 9.37512 12.1875H14.297V17.8125H12.1876C12.069 17.8125 11.9679 17.8521 11.858 17.8784L6.734 12.1875H7.96887C7.96887 8.88721 9.11145 6.19775 10.7111 4.46631C7.19982 5.62646 4.15441 8.12256 3.75451 11.4404C3.70617 11.8403 4.05334 12.1875 4.45764 12.1875H4.83996L10.8473 18.8628C10.8165 18.9771 10.777 19.0913 10.777 19.2188V24.8438C10.777 25.6216 11.4054 26.25 12.1832 26.25H17.8082C18.5861 26.25 19.2145 25.6216 19.2145 24.8438V19.2188C19.2145 19.0913 19.1749 18.9814 19.1442 18.8628L25.1559 12.1875H25.5382C25.9469 12.1875 26.2941 11.8447 26.2457 11.4404Z" fill="#007A60"/>
</g>
</svg>
