<svg width="30" height="30" viewBox="0 0 30 30" fill="none" xmlns="http://www.w3.org/2000/svg">
<g id="Scan code">
<path id="Vector" d="M12.1875 8.8125V12.1875H8.8125V8.8125H12.1875ZM13.875 7.125H7.125V13.875H13.875V7.125ZM12.1875 17.8125V21.1875H8.8125V17.8125H12.1875ZM13.875 16.125H7.125V22.875H13.875V16.125ZM21.1875 8.8125V12.1875H17.8125V8.8125H21.1875ZM22.875 7.125H16.125V13.875H22.875V7.125ZM16.125 16.125H17.8125V17.8125H16.125V16.125ZM17.8125 17.8125H19.5V19.5H17.8125V17.8125ZM19.5 16.125H21.1875V17.8125H19.5V16.125ZM16.125 19.5H17.8125V21.1875H16.125V19.5ZM17.8125 21.1875H19.5V22.875H17.8125V21.1875ZM19.5 19.5H21.1875V21.1875H19.5V19.5ZM21.1875 17.8125H22.875V19.5H21.1875V17.8125ZM21.1875 21.1875H22.875V22.875H21.1875V21.1875ZM26.25 9.375H24V6H20.625V3.75H26.25V9.375ZM26.25 26.25V20.625H24V24H20.625V26.25H26.25ZM3.75 26.25H9.375V24H6V20.625H3.75V26.25ZM3.75 3.75V9.375H6V6H9.375V3.75H3.75Z" fill="#007A60"/>
</g>
</svg>
