<svg width="24" height="24" viewBox="0 0 24 24" fill="none" xmlns="http://www.w3.org/2000/svg">
<g id="lyrics">
<path id="Union" fill-rule="evenodd" clip-rule="evenodd" d="M21 5C21.5523 5 22 5.44772 22 6V15C22 15.0595 21.9948 15.1178 21.9848 15.1744C21.9949 15.2822 22 15.3909 22 15.5C22 16.4283 21.6313 17.3185 20.9749 17.9749C20.3185 18.6313 19.4283 19 18.5 19C17.5717 19 16.6815 18.6313 16.0251 17.9749C15.3687 17.3185 15 16.4283 15 15.5C15 14.5717 15.3687 13.6815 16.0251 13.0251C16.6815 12.3687 17.5717 12 18.5 12C19.0238 12 19.5356 12.1174 20 12.3377V6C20 5.44772 20.4477 5 21 5ZM18.5 14C18.1022 14 17.7206 14.158 17.4393 14.4393C17.158 14.7206 17 15.1022 17 15.5C17 15.8978 17.158 16.2794 17.4393 16.5607C17.7206 16.842 18.1022 17 18.5 17C18.8978 17 19.2794 16.842 19.5607 16.5607C19.842 16.2794 20 15.8978 20 15.5C20 15.1022 19.842 14.7206 19.5607 14.4393C19.2794 14.158 18.8978 14 18.5 14ZM3 11C2.44772 11 2 11.4477 2 12C2 12.5523 2.44772 13 3 13H12C12.5523 13 13 12.5523 13 12C13 11.4477 12.5523 11 12 11H3ZM2 6C2 5.44772 2.44772 5 3 5H16C16.5523 5 17 5.44772 17 6C17 6.55228 16.5523 7 16 7H3C2.44772 7 2 6.55228 2 6ZM3 17C2.44772 17 2 17.4477 2 18C2 18.5523 2.44772 19 3 19H12C12.5523 19 13 18.5523 13 18C13 17.4477 12.5523 17 12 17H3Z" fill="#404040"/>
</g>
</svg>
