<svg width="24" height="24" viewBox="0 0 24 24" fill="none" xmlns="http://www.w3.org/2000/svg">
<g id="calendar">
<path id="Vector (Stroke)" fill-rule="evenodd" clip-rule="evenodd" d="M6.75 2.25C7.16421 2.25 7.5 2.58579 7.5 3V4.5H16.5V3C16.5 2.58579 16.8358 2.25 17.25 2.25C17.6642 2.25 18 2.58579 18 3V4.5H18.75C19.5457 4.5 20.3087 4.81607 20.8713 5.37868C21.4339 5.94129 21.75 6.70435 21.75 7.5V18.75C21.75 19.5457 21.4339 20.3087 20.8713 20.8713C20.3087 21.4339 19.5457 21.75 18.75 21.75H5.25C4.45435 21.75 3.69129 21.4339 3.12868 20.8713C2.56607 20.3087 2.25 19.5456 2.25 18.75V7.5C2.25 6.70435 2.56607 5.94129 3.12868 5.37868C3.69129 4.81607 4.45435 4.5 5.25 4.5H6V3C6 2.58579 6.33579 2.25 6.75 2.25ZM5.25 6C4.85218 6 4.47064 6.15804 4.18934 6.43934C3.90804 6.72064 3.75 7.10218 3.75 7.5V8.65192C4.20218 8.39087 4.71883 8.25 5.25 8.25H18.75C19.2812 8.25 19.7978 8.39087 20.25 8.65192V7.5C20.25 7.10218 20.092 6.72064 19.8107 6.43934C19.5294 6.15804 19.1478 6 18.75 6H5.25ZM20.25 11.25C20.25 10.8522 20.092 10.4706 19.8107 10.1893C19.5294 9.90804 19.1478 9.75 18.75 9.75H5.25C4.85218 9.75 4.47064 9.90804 4.18934 10.1893C3.90804 10.4706 3.75 10.8522 3.75 11.25V18.75C3.75 19.1478 3.90804 19.5294 4.18934 19.8107C4.47064 20.092 4.85218 20.25 5.25 20.25H18.75C19.1478 20.25 19.5294 20.092 19.8107 19.8107C20.092 19.5294 20.25 19.1478 20.25 18.75V11.25ZM11.25 12.75C11.25 12.3358 11.5858 12 12 12H12.008C12.4222 12 12.758 12.3358 12.758 12.75V12.758C12.758 13.1722 12.4222 13.508 12.008 13.508H12C11.5858 13.508 11.25 13.1722 11.25 12.758V12.75ZM13.5 12.75C13.5 12.3358 13.8358 12 14.25 12H14.258C14.6722 12 15.008 12.3358 15.008 12.75V12.758C15.008 13.1722 14.6722 13.508 14.258 13.508H14.25C13.8358 13.508 13.5 13.1722 13.5 12.758V12.75ZM15.75 12.75C15.75 12.3358 16.0858 12 16.5 12H16.508C16.9222 12 17.258 12.3358 17.258 12.75V12.758C17.258 13.1722 16.9222 13.508 16.508 13.508H16.5C16.0858 13.508 15.75 13.1722 15.75 12.758V12.75ZM6.75 15C6.75 14.5858 7.08579 14.25 7.5 14.25H7.508C7.92221 14.25 8.258 14.5858 8.258 15V15.008C8.258 15.4222 7.92221 15.758 7.508 15.758H7.5C7.08579 15.758 6.75 15.4222 6.75 15.008V15ZM9 15C9 14.5858 9.33579 14.25 9.75 14.25H9.758C10.1722 14.25 10.508 14.5858 10.508 15V15.008C10.508 15.4222 10.1722 15.758 9.758 15.758H9.75C9.33579 15.758 9 15.4222 9 15.008V15ZM11.25 15C11.25 14.5858 11.5858 14.25 12 14.25H12.008C12.4222 14.25 12.758 14.5858 12.758 15V15.008C12.758 15.4222 12.4222 15.758 12.008 15.758H12C11.5858 15.758 11.25 15.4222 11.25 15.008V15ZM13.5 15C13.5 14.5858 13.8358 14.25 14.25 14.25H14.258C14.6722 14.25 15.008 14.5858 15.008 15V15.008C15.008 15.4222 14.6722 15.758 14.258 15.758H14.25C13.8358 15.758 13.5 15.4222 13.5 15.008V15ZM15.75 15C15.75 14.5858 16.0858 14.25 16.5 14.25H16.508C16.9222 14.25 17.258 14.5858 17.258 15V15.008C17.258 15.4222 16.9222 15.758 16.508 15.758H16.5C16.0858 15.758 15.75 15.4222 15.75 15.008V15ZM6.75 17.25C6.75 16.8358 7.08579 16.5 7.5 16.5H7.508C7.92221 16.5 8.258 16.8358 8.258 17.25V17.258C8.258 17.6722 7.92221 18.008 7.508 18.008H7.5C7.08579 18.008 6.75 17.6722 6.75 17.258V17.25ZM9 17.25C9 16.8358 9.33579 16.5 9.75 16.5H9.758C10.1722 16.5 10.508 16.8358 10.508 17.25V17.258C10.508 17.6722 10.1722 18.008 9.758 18.008H9.75C9.33579 18.008 9 17.6722 9 17.258V17.25ZM11.25 17.25C11.25 16.8358 11.5858 16.5 12 16.5H12.008C12.4222 16.5 12.758 16.8358 12.758 17.25V17.258C12.758 17.6722 12.4222 18.008 12.008 18.008H12C11.5858 18.008 11.25 17.6722 11.25 17.258V17.25ZM13.5 17.25C13.5 16.8358 13.8358 16.5 14.25 16.5H14.258C14.6722 16.5 15.008 16.8358 15.008 17.25V17.258C15.008 17.6722 14.6722 18.008 14.258 18.008H14.25C13.8358 18.008 13.5 17.6722 13.5 17.258V17.25Z" fill="white"/>
</g>
</svg>
