<svg width="24" height="24" viewBox="0 0 24 24" fill="none" xmlns="http://www.w3.org/2000/svg">
<path d="M12 2.25C9.60649 2.24927 7.21613 2.4234 4.848 2.771C2.87 3.061 1.5 4.795 1.5 6.741V12.759C1.5 14.705 2.87 16.439 4.848 16.729C5.72895 16.8585 6.61329 16.9639 7.5 17.045V21C7.50013 21.1482 7.54419 21.2931 7.62661 21.4163C7.70903 21.5395 7.82611 21.6356 7.96308 21.6923C8.10004 21.749 8.25074 21.7639 8.39614 21.735C8.54154 21.7061 8.67511 21.6348 8.78 21.53L12.2081 18.1027C10.8489 16.8258 10 15.0121 10 13C10 9.13401 13.134 6 17 6C19.231 6 21.2182 7.04367 22.5 8.6694V6.74C22.5 4.794 21.13 3.062 19.152 2.77C16.817 2.428 14.43 2.25 12 2.25Z" fill="black" fill-opacity="0.75"/>
<path fill-rule="evenodd" clip-rule="evenodd" d="M12 13C12 10.2385 14.2385 8 17 8C19.7615 8 22 10.2385 22 13C22 15.7615 19.7615 18 17 18C14.2385 18 12 15.7615 12 13ZM18.8513 12.0697C18.8821 12.0287 18.9043 11.982 18.9168 11.9323C18.9292 11.8826 18.9316 11.8308 18.9238 11.7802C18.9159 11.7295 18.8981 11.6809 18.8712 11.6373C18.8443 11.5936 18.809 11.5558 18.7673 11.526C18.7256 11.4962 18.6784 11.475 18.6284 11.4637C18.5784 11.4524 18.5266 11.4512 18.4761 11.4602C18.4257 11.4692 18.3775 11.4882 18.3345 11.5161C18.2915 11.544 18.2545 11.5802 18.2256 11.6226L16.5662 13.9456L15.7333 13.1128C15.6604 13.0449 15.564 13.0079 15.4643 13.0097C15.3647 13.0114 15.2696 13.0518 15.1992 13.1222C15.1287 13.1927 15.0883 13.2878 15.0866 13.3874C15.0848 13.4871 15.1218 13.5835 15.1897 13.6564L16.3436 14.8103C16.3831 14.8497 16.4307 14.8801 16.4831 14.8993C16.5355 14.9185 16.5914 14.9261 16.6471 14.9215C16.7027 14.9169 16.7566 14.9003 16.8052 14.8727C16.8537 14.8452 16.8957 14.8074 16.9282 14.7621L18.8513 12.0697Z" fill="black" fill-opacity="0.75"/>
</svg>
