<svg width="20" height="27" viewBox="0 0 20 27" fill="none" xmlns="http://www.w3.org/2000/svg">
<g id="_&#229;&#156;&#150;&#229;&#177;&#164;_1" clip-path="url(#clip0_5464_42920)">
<path id="Vector" d="M19.6875 4.43789C19.7125 4.36289 19.725 4.27539 19.7375 4.20039C19.8375 3.65039 19.775 3.08789 19.55 2.56289C19.55 2.56289 19.55 2.55039 19.5375 2.53789V2.50039C19 1.38789 18.2125 1.01289 17.7875 0.887891C17.7875 0.887891 17.775 0.887891 17.7625 0.887891C17.7625 0.887891 17.7375 0.887891 17.725 0.887891C17.4125 0.762891 16.9125 0.612891 16.1875 0.525391C16.1875 0.525391 17.2625 1.65039 17.275 2.27539C17.275 2.27539 17.275 2.30039 17.275 2.31289C17.275 2.50039 17.075 2.86289 16.525 3.33789C15.25 4.33789 13.05 5.70039 9.75 6.50039C8.5625 6.70039 7.3375 7.01289 6.1 7.42539L6.4375 7.11289C6.4375 7.11289 4.8875 6.85039 3.3125 7.56289C3.225 7.60039 3.15 7.63789 3.075 7.67539C2.8 7.81289 2.525 7.97539 2.2375 8.17539C2.2375 8.17539 2.225 8.17539 2.2125 8.18789C1.6 8.67539 1.1125 9.30039 0.75 10.0629C0.75 10.0629 0.75 10.0879 0.75 10.1004C0.525 10.7004 0.5 11.2504 0.5 11.6379C0.5 11.6629 0.5 11.6879 0.5 11.7129V11.8379C0.5 11.8379 0.5 11.9004 0.525 12.0004C0.55 12.2879 0.6 12.5504 0.6875 12.7754C0.6875 12.7754 0.6875 12.7879 0.6875 12.8004C0.75 12.9254 0.8125 13.0379 0.8875 13.1254C1.7375 14.1129 2.55 13.9629 2.55 13.9629C2.15 13.5754 2.225 12.9254 2.2625 12.6754C2.2625 12.6504 2.275 12.6254 2.2875 12.6004C2.3125 12.5504 2.3375 12.5129 2.35 12.4754C2.3625 12.4504 2.375 12.4379 2.4 12.4129H2.4125C2.4125 12.4129 2.4375 12.3629 2.45 12.3504C2.45 12.3504 2.475 12.3254 2.4875 12.3129L2.5125 12.2879C2.9375 11.8879 3.775 11.6879 4.8875 11.7254C4.9375 11.7254 4.975 11.7254 5.025 11.7254C5.4375 11.7504 5.7375 11.8004 5.8 11.8129C6.1125 11.8629 6.4 11.9129 6.6625 11.9504H6.725C6.725 11.9504 6.7625 11.9754 6.7875 11.9754C6.7875 11.9754 6.9375 12.0004 7.15 12.0129C6.675 15.4254 6.15 21.0129 7.2625 23.7129V23.7379C8.3125 25.9254 10.0625 26.4129 11.375 26.4254C14.575 26.5504 15.3125 25.2129 15.475 24.5754C14.9375 24.6254 14.5125 24.5379 14.2375 24.4754C14.075 24.4504 13.9 24.3879 13.75 24.2754C13.6875 24.2379 13.6625 24.2004 13.6625 24.2004C12.475 23.0254 11.7875 20.5754 11.6625 17.1254C11.65 16.7129 11.6375 16.2879 11.65 15.8504C11.65 14.2879 11.775 12.9504 11.85 12.2129C14.975 11.7504 16.6125 10.4879 17.3125 9.76289C17.325 9.73789 17.35 9.72539 17.3625 9.70039C17.7 9.36289 18.1 8.66289 18.2375 8.41289C18.7875 7.95039 19.2 7.42539 19.4625 6.86289C20 5.71289 19.775 4.75039 19.6875 4.43789Z" fill="#007A60"/>
<path id="Vector_2" d="M19.4008 4.4375C19.4258 4.3375 19.4508 4.2375 19.4758 4.1375C19.5633 3.6375 19.5133 3.1375 19.3008 2.6375L19.2758 2.6C18.8008 1.5875 18.0883 1.25 17.7133 1.1375H17.6883C17.6883 1.1375 17.6633 1.125 17.6383 1.125L16.9383 1L17.3133 1.6C17.3133 1.6 17.4633 1.85 17.5258 2.1C17.5258 2.125 17.5258 2.15 17.5383 2.175C17.5383 2.1875 17.5383 2.2125 17.5383 2.2125C17.5383 2.225 17.5383 2.25 17.5383 2.2625V2.3C17.5383 2.6125 17.2258 3.05 16.6883 3.5125C15.3883 4.5375 13.1383 5.925 9.78828 6.7375C8.38828 6.975 6.93828 7.3625 5.47578 7.8875L5.96328 7.35H5.36328C4.90078 7.35 3.67578 7.45 2.37578 8.375C1.78828 8.8375 1.32578 9.4375 1.00078 10.15V10.175C0.800781 10.65 0.750781 11.1 0.738281 11.45V11.8125C0.738281 11.8125 0.738281 11.875 0.750781 11.95C0.763281 12.2125 0.813281 12.45 0.900781 12.6625C1.10078 13.1 1.41328 13.2625 1.55078 13.325L1.85078 13.4375L1.87578 13.025C1.87578 13.025 1.90078 12.7375 1.97578 12.4875C2.00078 12.425 2.03828 12.3625 2.07578 12.3125C2.08828 12.2875 2.11328 12.2625 2.13828 12.2375V12.2125C2.13828 12.2125 2.18828 12.175 2.20078 12.15C2.20078 12.1375 2.22578 12.125 2.23828 12.1125C2.25078 12.1 2.26328 12.0875 2.27578 12.075C2.88828 11.5 4.01328 11.4125 4.85078 11.4375C4.90078 11.4375 4.95078 11.4375 5.00078 11.4375C5.42578 11.4625 5.73828 11.5125 5.80078 11.525C6.11328 11.575 6.40078 11.625 6.65078 11.65H6.73828C6.73828 11.65 6.76328 11.675 6.77578 11.675C6.77578 11.675 6.95078 11.7 7.20078 11.725C7.27578 11.725 7.35078 11.7375 7.42578 11.75C6.95078 15.1 6.36328 20.875 7.47578 23.5875V23.6125C8.47578 25.7 10.1508 26.1375 11.3883 26.1375C11.8008 26.1375 12.2258 26.0875 12.6508 26C13.7758 25.7875 14.3133 25.4 14.3758 25.3625L15.1258 24.8125H14.2008C13.9758 24.7875 13.7008 24.65 13.4383 24.4C12.2008 23.175 11.4758 20.6625 11.3508 17.125C11.3383 16.7125 11.3258 16.2875 11.3383 15.8375C11.3383 14.1 11.4883 12.6375 11.5633 11.95C14.7508 11.525 16.3883 10.275 17.0758 9.55C17.1008 9.525 17.1133 9.5 17.1383 9.4875C17.4758 9.15 17.8883 8.4 17.9883 8.225C18.5258 7.775 18.9258 7.275 19.1883 6.725C19.7633 5.5 19.3883 4.475 19.3758 4.425L19.4008 4.4375Z" fill="#007A60"/>
<g id="Group">
<path id="Vector_3" d="M18.8867 4.6752C18.7492 5.6002 17.3617 6.2377 16.8867 6.4377C16.8367 6.4627 16.7867 6.4752 16.7242 6.5002C17.9992 5.8127 18.5492 5.0627 18.7617 4.4002C18.7617 4.4002 18.7617 4.3627 18.7742 4.3377C18.8492 4.0752 18.8742 3.8377 18.8617 3.6252C18.7992 2.5627 18.1492 2.0127 18.1492 2.0127C18.3742 2.7127 17.7492 3.4627 17.1117 4.0127C15.7617 5.0752 13.4242 6.5127 9.96172 7.3502C7.96172 7.6877 6.14922 8.28769 4.81172 8.8252H4.79922C4.79922 8.8252 4.36172 8.9877 4.19922 8.8002C4.03672 8.6252 4.59922 8.0502 4.59922 8.0502C0.549215 9.3752 1.49922 12.3252 1.49922 12.3252C2.24922 10.5752 4.96172 10.7627 6.57422 11.0502C6.69922 11.0752 6.82422 11.1002 6.93672 11.1252C6.93672 11.1252 7.51172 11.2002 8.17422 11.2252C7.66172 14.6127 6.97422 20.6752 8.09922 23.3877C9.74922 26.8627 13.4867 25.1877 13.4867 25.1877C10.4492 23.2877 10.6617 15.7377 11.0367 11.5002C11.0617 11.4877 11.0867 11.4627 11.0992 11.4502H11.1117C16.0242 10.8127 17.1742 8.61269 17.1742 8.61269C17.1742 8.61269 15.9117 9.22519 15.0617 9.1877L12.9367 9.7502C12.9367 9.7502 15.0742 9.1502 16.0867 8.6752C16.6742 8.4002 17.1367 8.1127 17.4867 7.8377C19.1367 6.66269 18.8867 4.6752 18.8867 4.6752Z" fill="white"/>
<path id="Vector_4" d="M1.50078 12.3253C1.50078 12.3253 1.13828 8.93776 9.22578 9.45026L8.15078 11.2878C8.15078 11.2878 7.90078 11.2628 5.96328 10.9878C5.96328 10.9878 2.35078 10.3378 1.48828 12.3253H1.50078Z" fill="white"/>
<path id="Vector_5" d="M18.8872 4.67519C18.8497 7.05019 14.2122 8.67519 11.5622 9.41269C14.3747 8.47519 16.3997 6.71269 16.3997 6.71269C20.8247 4.30019 18.1497 2.0127 18.1497 2.0127C18.5872 3.2127 17.7497 4.0877 17.2122 4.7877C14.0997 8.32519 9.42467 9.50019 9.42467 9.50019C9.42467 9.50019 8.66217 17.9752 9.19967 20.5627C9.86217 25.6627 13.4747 25.1752 13.4747 25.1752C9.67467 22.3002 11.0497 11.8002 11.0997 11.4502C14.7372 11.0752 16.3497 9.6252 16.9247 8.95019C17.1122 8.73769 17.1747 8.60019 17.1747 8.60019C14.7622 9.93769 12.9372 9.73769 12.9372 9.73769C20.2497 8.23769 18.8872 4.65019 18.8872 4.65019V4.67519Z" fill="white"/>
</g>
<path id="Vector_6" d="M18.1624 2.0127C18.1624 2.0127 18.5499 3.2627 17.5624 4.3252C17.5624 4.3252 16.0499 6.4877 12.6124 8.0377C12.6124 8.0377 10.5749 9.3002 9.03741 9.2627C7.49991 9.2252 5.36241 9.0752 3.27491 9.97519C3.27491 9.97519 1.23741 10.8252 1.49991 12.3252C1.49991 12.3252 1.44991 10.9377 3.33741 10.1627C3.33741 10.1627 5.76241 9.16269 9.14991 9.5252C9.14991 9.5252 8.14991 20.8502 9.77491 23.3252C11.5499 26.0252 13.4874 25.1877 13.4874 25.1877C10.7749 25.3252 9.78741 22.7502 9.78741 22.7502C9.62491 22.4502 9.49991 22.0002 9.41241 21.4877C9.06241 19.3127 9.12491 15.5752 9.24991 12.8502L9.46241 9.5377C9.78741 9.5127 10.3624 9.4127 11.1874 9.0127C11.1874 9.0127 14.8999 7.5127 17.0249 5.2252C17.0249 5.2252 19.0124 3.5502 18.1874 2.0377L18.1624 2.0127Z" fill="white"/>
</g>
<defs>
<clipPath id="clip0_5464_42920">
<rect width="19.325" height="25.925" fill="white" transform="translate(0.5 0.5)"/>
</clipPath>
</defs>
</svg>
