<svg width="24" height="24" viewBox="0 0 24 24" fill="none" xmlns="http://www.w3.org/2000/svg">
<g clip-path="url(#clip0_5392_181786)">
<path d="M19.9251 3.46477C19.7906 4.32532 18.5388 4.93088 18.1146 5.11149C18.1043 5.11149 18.0836 5.12212 18.0732 5.13274C18.2698 5.00525 18.456 4.87776 18.6215 4.7609C18.6836 4.7184 18.7353 4.67591 18.7871 4.63341C18.8595 4.58029 18.9216 4.52717 18.9836 4.47405C19.025 4.43156 19.0664 4.38906 19.1078 4.34656C20.97 2.54048 19.3147 1.03187 19.2733 1C19.4802 1.64806 18.9112 2.34925 18.3319 2.86983C17.1007 3.86848 14.9799 5.20711 11.8244 5.99328C10.0036 6.31201 8.35862 6.86445 7.12748 7.36378H7.11714C7.11714 7.36378 6.71365 7.51252 6.56882 7.34253C6.41363 7.17255 6.94126 6.64135 6.94126 6.64135C3.22716 7.86311 4.08585 10.6147 4.08585 10.6147C4.15827 10.4447 4.26173 10.3066 4.36518 10.1685C4.40657 10.126 4.4376 10.0729 4.47899 10.0304C4.56175 9.94542 4.66521 9.87105 4.75832 9.79668C5.9998 8.95738 8.15171 9.3611 8.15171 9.3611C9.92082 9.61607 10.1381 9.63732 10.1381 9.63732C9.67252 12.8033 9.06213 18.4234 10.076 20.9413C11.5761 24.1922 14.9799 22.6199 14.9799 22.6199C13.2832 21.3025 12.7245 18.264 12.59 15.4805C12.59 15.3955 12.59 15.3212 12.5797 15.2362C12.5797 15.0449 12.5797 14.8537 12.5693 14.6625C12.5693 14.5137 12.5693 14.3544 12.5693 14.2056C12.5693 11.8577 12.8073 9.93479 12.828 9.78606C15.5489 9.49921 17.018 8.53242 17.7422 7.85249C17.7732 7.83124 17.7939 7.79937 17.8249 7.77812C17.8663 7.74625 17.8973 7.70375 17.9284 7.67188C18.1043 7.49127 18.2181 7.34253 18.2801 7.24692C18.3112 7.20442 18.3215 7.18317 18.3319 7.16193C18.3422 7.14068 18.3526 7.11943 18.3526 7.11943C18.3526 7.11943 17.2042 7.69313 16.4283 7.65063L16.2627 7.69313C20.8873 6.12077 19.9148 3.4329 19.9148 3.4329L19.9251 3.46477Z" fill="white"/>
</g>
<defs>
<clipPath id="clip0_5392_181786">
<rect width="24" height="24" fill="white"/>
</clipPath>
</defs>
</svg>
