<svg width="24" height="24" viewBox="0 0 24 24" fill="none" xmlns="http://www.w3.org/2000/svg">
<g id="user">
<path id="Vector (Stroke)" fill-rule="evenodd" clip-rule="evenodd" d="M12.0001 3.14998C11.2442 3.14998 10.5193 3.45024 9.98482 3.98472C9.45034 4.5192 9.15008 5.24411 9.15008 5.99998C9.15008 6.75584 9.45034 7.48075 9.98482 8.01523C10.5193 8.54971 11.2442 8.84998 12.0001 8.84998C12.7559 8.84998 13.4809 8.54971 14.0153 8.01523C14.5498 7.48075 14.8501 6.75584 14.8501 5.99998C14.8501 5.24411 14.5498 4.5192 14.0153 3.98472C13.4809 3.45024 12.7559 3.14998 12.0001 3.14998ZM8.71203 2.71193C9.58407 1.83988 10.7668 1.34998 12.0001 1.34998C13.2333 1.34998 14.4161 1.83989 15.2881 2.71193C16.1602 3.58397 16.6501 4.76672 16.6501 5.99998C16.6501 7.23323 16.1602 8.41598 15.2881 9.28802C14.4161 10.1601 13.2333 10.65 12.0001 10.65C10.7668 10.65 9.58407 10.1601 8.71203 9.28802C7.83998 8.41598 7.35008 7.23323 7.35008 5.99998C7.35008 4.76672 7.83998 3.58397 8.71203 2.71193ZM12.0001 13.6404C10.2683 13.6404 8.60593 14.3211 7.37143 15.5356C6.27744 16.6119 5.59715 18.031 5.43679 19.5451C7.45678 20.3857 9.67333 20.85 12.0001 20.85L12.0013 20.85C14.2554 20.853 16.4857 20.4087 18.5633 19.5449C18.4029 18.0308 17.7227 16.6118 16.6287 15.5356C15.3942 14.3211 13.7318 13.6404 12.0001 13.6404ZM6.10907 14.2524C7.68025 12.7067 9.79601 11.8404 12.0001 11.8404C14.2041 11.8404 16.3199 12.7067 17.8911 14.2524C19.4623 15.7982 20.363 17.8995 20.399 20.1033C20.4048 20.4604 20.1989 20.7872 19.8742 20.9361C17.4035 22.069 14.7169 22.6537 11.9989 22.65L12.0001 21.7502V22.65C11.9997 22.65 11.9993 22.65 11.9989 22.65C9.19115 22.6498 6.52371 22.0368 4.1256 20.9359C3.80112 20.787 3.59536 20.4603 3.60119 20.1033C3.63719 17.8995 4.53789 15.7982 6.10907 14.2524Z" fill="white"/>
</g>
</svg>
