<svg xmlns="http://www.w3.org/2000/svg" width="20" height="21" viewBox="0 0 20 21" fill="none">
<g id="calendar">
<path id="Vector (Stroke)" fill-rule="evenodd" clip-rule="evenodd" d="M5.625 2.375C5.97018 2.375 6.25 2.65482 6.25 3V4.25H13.75V3C13.75 2.65482 14.0298 2.375 14.375 2.375C14.7202 2.375 15 2.65482 15 3V4.25H15.625C16.288 4.25 16.9239 4.51339 17.3928 4.98223C17.8616 5.45107 18.125 6.08696 18.125 6.75V16.125C18.125 16.788 17.8616 17.4239 17.3928 17.8928C16.9239 18.3616 16.288 18.625 15.625 18.625H4.375C3.71196 18.625 3.07607 18.3616 2.60723 17.8928C2.13839 17.4239 1.875 16.788 1.875 16.125V6.75C1.875 6.08696 2.13839 5.45107 2.60723 4.98223C3.07607 4.51339 3.71196 4.25 4.375 4.25H5V3C5 2.65482 5.27982 2.375 5.625 2.375ZM4.375 5.5C4.04348 5.5 3.72554 5.6317 3.49112 5.86612C3.2567 6.10054 3.125 6.41848 3.125 6.75V7.70993C3.50182 7.49239 3.93236 7.375 4.375 7.375H15.625C16.0676 7.375 16.4982 7.49239 16.875 7.70993V6.75C16.875 6.41848 16.7433 6.10054 16.5089 5.86612C16.2745 5.6317 15.9565 5.5 15.625 5.5H4.375ZM16.875 9.875C16.875 9.54348 16.7433 9.22554 16.5089 8.99112C16.2745 8.7567 15.9565 8.625 15.625 8.625H4.375C4.04348 8.625 3.72554 8.7567 3.49112 8.99112C3.2567 9.22554 3.125 9.54348 3.125 9.875V16.125C3.125 16.4565 3.2567 16.7745 3.49112 17.0089C3.72554 17.2433 4.04348 17.375 4.375 17.375H15.625C15.9565 17.375 16.2745 17.2433 16.5089 17.0089C16.7433 16.7745 16.875 16.4565 16.875 16.125V9.875ZM9.375 11.125C9.375 10.7798 9.65482 10.5 10 10.5H10.0067C10.3518 10.5 10.6317 10.7798 10.6317 11.125V11.1317C10.6317 11.4768 10.3518 11.7567 10.0067 11.7567H10C9.65482 11.7567 9.375 11.4768 9.375 11.1317V11.125ZM11.25 11.125C11.25 10.7798 11.5298 10.5 11.875 10.5H11.8817C12.2268 10.5 12.5067 10.7798 12.5067 11.125V11.1317C12.5067 11.4768 12.2268 11.7567 11.8817 11.7567H11.875C11.5298 11.7567 11.25 11.4768 11.25 11.1317V11.125ZM13.125 11.125C13.125 10.7798 13.4048 10.5 13.75 10.5H13.7567C14.1018 10.5 14.3817 10.7798 14.3817 11.125V11.1317C14.3817 11.4768 14.1018 11.7567 13.7567 11.7567H13.75C13.4048 11.7567 13.125 11.4768 13.125 11.1317V11.125ZM5.625 13C5.625 12.6548 5.90482 12.375 6.25 12.375H6.25667C6.60184 12.375 6.88167 12.6548 6.88167 13V13.0067C6.88167 13.3518 6.60184 13.6317 6.25667 13.6317H6.25C5.90482 13.6317 5.625 13.3518 5.625 13.0067V13ZM7.5 13C7.5 12.6548 7.77982 12.375 8.125 12.375H8.13167C8.47684 12.375 8.75667 12.6548 8.75667 13V13.0067C8.75667 13.3518 8.47684 13.6317 8.13167 13.6317H8.125C7.77982 13.6317 7.5 13.3518 7.5 13.0067V13ZM9.375 13C9.375 12.6548 9.65482 12.375 10 12.375H10.0067C10.3518 12.375 10.6317 12.6548 10.6317 13V13.0067C10.6317 13.3518 10.3518 13.6317 10.0067 13.6317H10C9.65482 13.6317 9.375 13.3518 9.375 13.0067V13ZM11.25 13C11.25 12.6548 11.5298 12.375 11.875 12.375H11.8817C12.2268 12.375 12.5067 12.6548 12.5067 13V13.0067C12.5067 13.3518 12.2268 13.6317 11.8817 13.6317H11.875C11.5298 13.6317 11.25 13.3518 11.25 13.0067V13ZM13.125 13C13.125 12.6548 13.4048 12.375 13.75 12.375H13.7567C14.1018 12.375 14.3817 12.6548 14.3817 13V13.0067C14.3817 13.3518 14.1018 13.6317 13.7567 13.6317H13.75C13.4048 13.6317 13.125 13.3518 13.125 13.0067V13ZM5.625 14.875C5.625 14.5298 5.90482 14.25 6.25 14.25H6.25667C6.60184 14.25 6.88167 14.5298 6.88167 14.875V14.8817C6.88167 15.2268 6.60184 15.5067 6.25667 15.5067H6.25C5.90482 15.5067 5.625 15.2268 5.625 14.8817V14.875ZM7.5 14.875C7.5 14.5298 7.77982 14.25 8.125 14.25H8.13167C8.47684 14.25 8.75667 14.5298 8.75667 14.875V14.8817C8.75667 15.2268 8.47684 15.5067 8.13167 15.5067H8.125C7.77982 15.5067 7.5 15.2268 7.5 14.8817V14.875ZM9.375 14.875C9.375 14.5298 9.65482 14.25 10 14.25H10.0067C10.3518 14.25 10.6317 14.5298 10.6317 14.875V14.8817C10.6317 15.2268 10.3518 15.5067 10.0067 15.5067H10C9.65482 15.5067 9.375 15.2268 9.375 14.8817V14.875ZM11.25 14.875C11.25 14.5298 11.5298 14.25 11.875 14.25H11.8817C12.2268 14.25 12.5067 14.5298 12.5067 14.875V14.8817C12.5067 15.2268 12.2268 15.5067 11.8817 15.5067H11.875C11.5298 15.5067 11.25 15.2268 11.25 14.8817V14.875Z" fill="#0e60a1"/>
</g>
</svg>