<svg width="31" height="30" viewBox="0 0 31 30" fill="none" xmlns="http://www.w3.org/2000/svg">
<g id="heart">
<path id="Vector (Stroke)" fill-rule="evenodd" clip-rule="evenodd" d="M3.3125 10.3125C3.3125 6.65271 6.39374 3.75 10.1087 3.75C12.295 3.75 14.2528 4.74845 15.5 6.31394C16.7471 4.7485 18.7047 3.75 20.89 3.75C24.6075 3.75 27.6875 6.65271 27.6875 10.3125C27.6875 15.2185 24.6402 19.2016 21.7643 21.8826C20.311 23.2374 18.8616 24.2974 17.7768 25.0186C17.2336 25.3798 16.7794 25.6575 16.4588 25.8461C16.2985 25.9405 16.1714 26.0126 16.0831 26.0619C16.0389 26.0866 16.0044 26.1055 15.9803 26.1186L15.952 26.1339L15.9438 26.1383L15.9413 26.1397C15.9409 26.1398 15.9397 26.1405 15.5 25.3125C15.0603 26.1405 15.06 26.1403 15.0596 26.1401L15.0562 26.1383L15.048 26.1339L15.0197 26.1186C14.9956 26.1055 14.9611 26.0866 14.9169 26.0619C14.8286 26.0126 14.7015 25.9405 14.5412 25.8461C14.2206 25.6575 13.7664 25.3798 13.2232 25.0186C12.1384 24.2974 10.689 23.2374 9.23573 21.8826C6.35978 19.2016 3.3125 15.2185 3.3125 10.3125ZM15.5 25.3125L15.0596 26.1401C15.3346 26.2862 15.6648 26.2865 15.9397 26.1405L15.5 25.3125ZM15.5 24.2348C15.5026 24.2333 15.5053 24.2317 15.508 24.2301C15.8026 24.0568 16.2274 23.7972 16.7388 23.4572C17.7634 22.776 19.1265 21.7782 20.4857 20.5111C23.2348 17.9484 25.8125 14.4315 25.8125 10.3125C25.8125 7.75979 23.645 5.625 20.89 5.625C18.8378 5.625 17.0982 6.81794 16.3565 8.48485C16.206 8.82322 15.8704 9.04125 15.5 9.04125C15.1296 9.04125 14.794 8.82322 14.6435 8.48485C13.9018 6.81804 12.1623 5.625 10.1087 5.625C7.35626 5.625 5.1875 7.75979 5.1875 10.3125C5.1875 14.4315 7.76522 17.9484 10.5143 20.5111C11.8735 21.7782 13.2366 22.776 14.2612 23.4572C14.7726 23.7972 15.1974 24.0568 15.492 24.2301C15.4947 24.2317 15.4974 24.2333 15.5 24.2348Z" fill="#007A60"/>
</g>
</svg>
