<svg width="20" height="20" viewBox="0 0 20 20" fill="none" xmlns="http://www.w3.org/2000/svg">
<g id="mini/eye-slash">
<path id="Vector" fill-rule="evenodd" clip-rule="evenodd" d="M3.27985 2.22082C3.13767 2.08834 2.94962 2.01622 2.75532 2.01965C2.56102 2.02308 2.37564 2.10179 2.23822 2.2392C2.10081 2.37661 2.0221 2.562 2.01867 2.7563C2.01524 2.9506 2.08737 3.13865 2.21985 3.28082L16.7198 17.7808C16.7885 17.8545 16.8713 17.9136 16.9633 17.9546C17.0553 17.9956 17.1546 18.0176 17.2553 18.0194C17.356 18.0212 17.4561 18.0027 17.5494 17.9649C17.6428 17.9272 17.7277 17.8711 17.7989 17.7999C17.8701 17.7286 17.9262 17.6438 17.964 17.5504C18.0017 17.457 18.0202 17.357 18.0184 17.2563C18.0167 17.1556 17.9946 17.0563 17.9536 16.9643C17.9126 16.8723 17.8535 16.7895 17.7798 16.7208L16.0348 14.9758C17.5204 13.8508 18.6631 12.3341 19.3348 10.5958C19.4815 10.2144 19.4815 9.79221 19.3348 9.41082C18.6086 7.52419 17.3278 5.90186 15.6612 4.7576C13.9946 3.61334 12.0204 3.00085 9.99885 3.00082C8.34282 2.99808 6.71227 3.40847 5.25485 4.19482L3.27985 2.22082ZM7.75185 6.69082L8.84385 7.78282C9.31561 7.53624 9.85377 7.44668 10.38 7.52719C10.9062 7.60769 11.3929 7.85405 11.7694 8.2304C12.1459 8.60676 12.3924 9.09345 12.473 9.61962C12.5537 10.1458 12.4643 10.684 12.2178 11.1558L13.3088 12.2478C13.8324 11.4779 14.071 10.5495 13.9836 9.62263C13.8961 8.69571 13.488 7.82833 12.8297 7.16999C12.1713 6.51164 11.304 6.10357 10.377 6.01611C9.45012 5.92864 8.52172 6.16725 7.75185 6.69082Z" fill="#A3A3A3"/>
<path id="Vector_2" d="M10.7479 13.9295L13.2709 16.4525C12.219 16.8158 11.1137 17.0007 10.0009 16.9995C5.74288 16.9995 2.10688 14.3395 0.663883 10.5895C0.516987 10.2078 0.516987 9.78522 0.663883 9.40353C1.15235 8.13994 1.8923 6.98868 2.83888 6.01953L6.06988 9.25153C5.94778 9.89235 5.98426 10.5533 6.17614 11.1768C6.36803 11.8003 6.70949 12.3674 7.17076 12.8287C7.63204 13.2899 8.19914 13.6314 8.82262 13.8233C9.44611 14.0152 10.1071 14.0516 10.7479 13.9295Z" fill="#A3A3A3"/>
</g>
</svg>
