<svg width="30" height="30" viewBox="0 0 30 30" fill="none" xmlns="http://www.w3.org/2000/svg">
<g id="history">
<path id="Union" fill-rule="evenodd" clip-rule="evenodd" d="M5.625 4.6875C4.63044 4.6875 3.67661 5.08259 2.97335 5.78585C2.27009 6.48911 1.875 7.44294 1.875 8.4375V21.5625C1.875 22.5571 2.27009 23.5109 2.97335 24.2141C3.67661 24.9174 4.63044 25.3125 5.625 25.3125H24.375C25.3696 25.3125 26.3234 24.9174 27.0267 24.2141C27.7299 23.5109 28.125 22.5571 28.125 21.5625V8.4375C28.125 7.44294 27.7299 6.48911 27.0267 5.78585C26.3234 5.08259 25.3696 4.6875 24.375 4.6875H5.625ZM4.29917 7.11168C4.65081 6.76004 5.12772 6.5625 5.625 6.5625H24.375C24.8723 6.5625 25.3492 6.76004 25.7008 7.11168C26.0525 7.46331 26.25 7.94022 26.25 8.4375V21.5625C26.25 22.0598 26.0525 22.5367 25.7008 22.8883C25.3492 23.24 24.8723 23.4375 24.375 23.4375H5.625C5.12772 23.4375 4.65081 23.24 4.29917 22.8883C3.94754 22.5367 3.75 22.0598 3.75 21.5625V8.4375C3.75 7.94022 3.94754 7.46331 4.29917 7.11168ZM12.5 10.3125C11.9822 10.3125 11.5625 10.7322 11.5625 11.25C11.5625 11.7678 11.9822 12.1875 12.5 12.1875H23.4375C23.9553 12.1875 24.375 11.7678 24.375 11.25C24.375 10.7322 23.9553 10.3125 23.4375 10.3125H12.5ZM12.5 14.0625C11.9822 14.0625 11.5625 14.4822 11.5625 15C11.5625 15.5178 11.9822 15.9375 12.5 15.9375H23.4375C23.9553 15.9375 24.375 15.5178 24.375 15C24.375 14.4822 23.9553 14.0625 23.4375 14.0625H12.5ZM12.5 17.8125C11.9822 17.8125 11.5625 18.2322 11.5625 18.75C11.5625 19.2678 11.9822 19.6875 12.5 19.6875H23.4375C23.9553 19.6875 24.375 19.2678 24.375 18.75C24.375 18.2322 23.9553 17.8125 23.4375 17.8125H12.5ZM7.5 12.5C8.19036 12.5 8.75 11.9404 8.75 11.25C8.75 10.5596 8.19036 10 7.5 10C6.80964 10 6.25 10.5596 6.25 11.25C6.25 11.9404 6.80964 12.5 7.5 12.5ZM8.75 15C8.75 15.6904 8.19036 16.25 7.5 16.25C6.80964 16.25 6.25 15.6904 6.25 15C6.25 14.3096 6.80964 13.75 7.5 13.75C8.19036 13.75 8.75 14.3096 8.75 15ZM7.5 20C8.19036 20 8.75 19.4404 8.75 18.75C8.75 18.0596 8.19036 17.5 7.5 17.5C6.80964 17.5 6.25 18.0596 6.25 18.75C6.25 19.4404 6.80964 20 7.5 20Z" fill="#007A60"/>
</g>
</svg>
