<svg width="30" height="30" viewBox="0 0 30 30" fill="none" xmlns="http://www.w3.org/2000/svg">
<g id="medal">
<path id="Vector (Stroke)" fill-rule="evenodd" clip-rule="evenodd" d="M7.79961 4.73481V6.07143C7.79961 8.3018 8.82867 10.2925 10.4455 11.604C11.2985 12.2971 12.3017 12.7862 13.3761 13.0324C14.4447 13.2769 15.5555 13.2769 16.6241 13.0324M12.1879 14.5554C11.2271 14.242 10.3253 13.7692 9.52149 13.1561C7.83891 12.9527 6.2603 12.2306 5.01033 11.088C3.69224 9.8832 2.81396 8.2789 2.51292 6.52616C2.43173 6.05347 2.7414 5.60157 3.21434 5.50257C4.13501 5.30985 5.06341 5.13869 5.99952 4.9903V3.95357C5.99952 3.50862 6.32977 3.13157 6.77392 3.06946C9.46296 2.69339 12.2099 2.5 15 2.5C17.7913 2.5 20.5381 2.69338 23.2257 3.06822C23.67 3.13018 24.0005 3.5073 24.0005 3.95238V4.99019C24.9331 5.13788 25.862 5.30875 26.7861 5.50266C27.2588 5.60185 27.5682 6.05363 27.4871 6.52614C27.1861 8.27868 26.308 9.88282 24.9902 11.0876C23.7403 12.2303 22.1609 12.9525 20.4786 13.1561C19.6747 13.7692 18.7733 14.2421 17.8124 14.5554C17.9437 15.3301 18.1896 16.0817 18.5425 16.7857H19.0502C20.2943 16.7857 21.3003 17.786 21.3003 19.0179V22.233C22.1585 22.4068 22.9539 22.8269 23.5824 23.4504C24.4264 24.2876 24.9005 25.4231 24.9005 26.6071C24.9005 26.8439 24.8057 27.071 24.6369 27.2385C24.4681 27.4059 24.2392 27.5 24.0005 27.5H5.99952C5.50243 27.5 5.09947 27.1003 5.09947 26.6071C5.09947 25.4231 5.5736 24.2876 6.41756 23.4504C7.04614 22.8269 7.84152 22.4068 8.69966 22.233V19.0179C8.69966 17.7855 9.70746 16.7857 10.9498 16.7857H11.4585C11.8112 16.0816 12.0568 15.33 12.1879 14.5554ZM13.425 16.7857H16.5757C16.3409 16.1895 16.1657 15.5714 16.0527 14.9404C15.3534 15.0218 14.6469 15.0219 13.9476 14.9404C13.8347 15.5714 13.6596 16.1895 13.425 16.7857ZM10.4998 22.1429H19.5002V19.0179C19.5002 18.7712 19.2991 18.5714 19.0502 18.5714H10.9498C10.7016 18.5714 10.4998 18.7717 10.4998 19.0179V22.1429ZM16.6241 13.0324C17.6985 12.7864 18.7005 12.2978 19.554 11.6045C21.1708 10.293 22.2004 8.3018 22.2004 6.07143V4.7339C19.8431 4.43801 17.4396 4.28571 15 4.28571C12.5613 4.28571 10.1578 4.43803 7.79961 4.73481M23.9714 6.79451C23.8634 8.13044 23.4589 9.38343 22.8236 10.4885C23.1593 10.2818 23.4765 10.0431 23.7703 9.7745C24.5803 9.03398 25.1767 8.09951 25.5068 7.0674C24.9964 6.9692 24.4845 6.87823 23.9714 6.79451ZM6.02863 6.79467C5.51455 6.87863 5.00275 6.96969 4.49324 7.06764C4.82347 8.0998 5.42001 9.03429 6.23012 9.77478C6.52386 10.0433 6.84092 10.2819 7.1765 10.4886C6.54114 9.38354 6.13663 8.13058 6.02863 6.79467ZM9.59971 23.9286C8.88359 23.9286 8.19679 24.2108 7.69042 24.7131C7.40294 24.9983 7.18698 25.3412 7.05399 25.7143H22.946C22.813 25.3412 22.5971 24.9983 22.3096 24.7131C21.8032 24.2108 21.1164 23.9286 20.4003 23.9286H9.59971Z" fill="white"/>
</g>
</svg>
