<svg width="42" height="54" viewBox="0 0 42 54" fill="none" xmlns="http://www.w3.org/2000/svg">
<g id="_&#229;&#156;&#150;&#229;&#177;&#164;_1" clip-path="url(#clip0_2529_19555)">
<path id="Vector" d="M36.925 53.25H5.075C2.5 53.25 0.375 51.0722 0.375 48.3759V5.62407C0.375 2.92778 2.475 0.75 5.075 0.75H17.275C30.725 0.75 41.65 12.0796 41.65 26.0278V48.3759C41.65 51.0463 39.55 53.25 36.95 53.25H36.925ZM5.075 4.63889C4.55 4.63889 4.125 5.07963 4.125 5.62407V48.4018C4.125 48.9463 4.55 49.387 5.075 49.387H36.95C37.475 49.387 37.9 48.9463 37.9 48.4018V27.013C37.9 23.2537 34.95 20.2204 31.35 20.2204H27.6C25.025 20.2204 22.9 18.0426 22.9 15.3463V11.4574C22.9 7.69815 19.95 4.66481 16.35 4.66481H5.075V4.63889ZM25.4 6.37593C26.175 7.87963 26.625 9.61667 26.625 11.4574V15.3463C26.625 15.8907 27.05 16.3315 27.575 16.3315H31.325C33.1 16.3315 34.75 16.7981 36.225 17.6019C34.15 12.5981 30.25 8.5537 25.425 6.40185L25.4 6.37593ZM28.5 43.5278C28.025 43.5278 27.55 43.3463 27.175 42.9574L24.55 40.2352C23.25 41.0907 21.7 41.5833 20.05 41.5833C15.4 41.5833 11.6 37.6685 11.6 32.8204C11.6 27.9722 15.375 24.0574 20.05 24.0574C24.725 24.0574 28.5 27.9722 28.5 32.8204C28.5 34.5315 28.025 36.1389 27.2 37.487L29.825 40.2093C30.55 40.9611 30.55 42.2056 29.825 42.9574C29.45 43.3463 28.975 43.5278 28.5 43.5278ZM20.075 27.9722C17.5 27.9722 15.375 30.15 15.375 32.8463C15.375 35.5426 17.475 37.7204 20.075 37.7204C22.675 37.7204 24.775 35.5426 24.775 32.8463C24.775 30.15 22.675 27.9722 20.075 27.9722Z" fill="#A3A3A3"/>
</g>
<defs>
<clipPath id="clip0_2529_19555">
<rect width="41.25" height="52.5" fill="white" transform="translate(0.375 0.75)"/>
</clipPath>
</defs>
</svg>
