<svg width="30" height="30" viewBox="0 0 30 30" fill="none" xmlns="http://www.w3.org/2000/svg">
<g id="plus-circle">
<path id="Vector (Stroke)" fill-rule="evenodd" clip-rule="evenodd" d="M15 4.6875C12.265 4.6875 9.64193 5.77399 7.70796 7.70796C5.77399 9.64193 4.6875 12.265 4.6875 15C4.6875 16.3543 4.95424 17.6953 5.47249 18.9464C5.99074 20.1976 6.75036 21.3344 7.70796 22.292C8.66557 23.2496 9.80241 24.0093 11.0536 24.5275C12.3047 25.0458 13.6457 25.3125 15 25.3125C16.3543 25.3125 17.6953 25.0458 18.9464 24.5275C20.1976 24.0093 21.3344 23.2496 22.292 22.292C23.2496 21.3344 24.0093 20.1976 24.5275 18.9464C25.0458 17.6953 25.3125 16.3543 25.3125 15C25.3125 12.265 24.226 9.64193 22.292 7.70796C20.3581 5.77399 17.735 4.6875 15 4.6875ZM6.38214 6.38214C8.66774 4.09654 11.7677 2.8125 15 2.8125C18.2323 2.8125 21.3323 4.09654 23.6179 6.38214C25.9035 8.66774 27.1875 11.7677 27.1875 15C27.1875 16.6005 26.8723 18.1853 26.2598 19.664C25.6473 21.1426 24.7496 22.4862 23.6179 23.6179C22.4862 24.7496 21.1426 25.6473 19.664 26.2598C18.1853 26.8723 16.6005 27.1875 15 27.1875C13.3995 27.1875 11.8147 26.8723 10.336 26.2598C8.85739 25.6473 7.51385 24.7496 6.38214 23.6179C5.25042 22.4862 4.3527 21.1426 3.74022 19.664C3.12774 18.1853 2.8125 16.6005 2.8125 15C2.8125 11.7677 4.09654 8.66774 6.38214 6.38214ZM15 10.3125C15.5178 10.3125 15.9375 10.7322 15.9375 11.25V14.0625H18.75C19.2678 14.0625 19.6875 14.4822 19.6875 15C19.6875 15.5178 19.2678 15.9375 18.75 15.9375H15.9375V18.75C15.9375 19.2678 15.5178 19.6875 15 19.6875C14.4822 19.6875 14.0625 19.2678 14.0625 18.75V15.9375H11.25C10.7322 15.9375 10.3125 15.5178 10.3125 15C10.3125 14.4822 10.7322 14.0625 11.25 14.0625H14.0625V11.25C14.0625 10.7322 14.4822 10.3125 15 10.3125Z" fill="#A3A3A3"/>
</g>
</svg>
