<svg width="367" height="230" viewBox="0 0 367 230" fill="none" xmlns="http://www.w3.org/2000/svg">
<g filter="url(#filter0_d_7478_6805)">
<path d="M339 10C345.627 10 351 15.3726 351 22V142.25C345.294 143.408 341 148.453 341 154.5C341 160.547 345.294 165.591 351 166.749V196C351 202.627 345.627 208 339 208H28C21.3726 208 16 202.627 16 196V166.749C21.7055 165.591 26 160.547 26 154.5C26 148.453 21.7056 143.408 16 142.25V22C16 15.3726 21.3726 10 28 10H339Z" fill="white"/>
</g>
<path d="M28 208C21.3726 208 16 202.627 16 196L16 166.75C21.7056 165.592 26 160.547 26 154.5C26 154.333 25.9958 154.166 25.9893 154L341.011 154C341.004 154.166 341 154.333 341 154.5C341 160.547 345.294 165.592 351 166.75L351 196C351 202.627 345.627 208 339 208L28 208Z" fill="#F0F7F5"/>
<path d="M35 149H43V155C43 156.105 42.1046 157 41 157H37C35.8954 157 35 156.105 35 155V149Z" fill="white"/>
<path d="M59 149H67V155C67 156.105 66.1046 157 65 157H61C59.8954 157 59 156.105 59 155V149Z" fill="white"/>
<path d="M83 149H91V155C91 156.105 90.1046 157 89 157H85C83.8954 157 83 156.105 83 155V149Z" fill="white"/>
<path d="M107 149H115V155C115 156.105 114.105 157 113 157H109C107.895 157 107 156.105 107 155V149Z" fill="white"/>
<path d="M131 149H139V155C139 156.105 138.105 157 137 157H133C131.895 157 131 156.105 131 155V149Z" fill="white"/>
<path d="M155 149H163V155C163 156.105 162.105 157 161 157H157C155.895 157 155 156.105 155 155V149Z" fill="white"/>
<path d="M179 149H187V155C187 156.105 186.105 157 185 157H181C179.895 157 179 156.105 179 155V149Z" fill="white"/>
<path d="M203 149H211V155C211 156.105 210.105 157 209 157H205C203.895 157 203 156.105 203 155V149Z" fill="white"/>
<path d="M227 149H235V155C235 156.105 234.105 157 233 157H229C227.895 157 227 156.105 227 155V149Z" fill="white"/>
<path d="M251 149H259V155C259 156.105 258.105 157 257 157H253C251.895 157 251 156.105 251 155V149Z" fill="white"/>
<path d="M275 149H283V155C283 156.105 282.105 157 281 157H277C275.895 157 275 156.105 275 155V149Z" fill="white"/>
<path d="M299 149H307V155C307 156.105 306.105 157 305 157H301C299.895 157 299 156.105 299 155V149Z" fill="white"/>
<path d="M323 149H331V155C331 156.105 330.105 157 329 157H325C323.895 157 323 156.105 323 155V149Z" fill="white"/>
<defs>
<filter id="filter0_d_7478_6805" x="0" y="0" width="367" height="230" filterUnits="userSpaceOnUse" color-interpolation-filters="sRGB">
<feFlood flood-opacity="0" result="BackgroundImageFix"/>
<feColorMatrix in="SourceAlpha" type="matrix" values="0 0 0 0 0 0 0 0 0 0 0 0 0 0 0 0 0 0 127 0" result="hardAlpha"/>
<feOffset dy="6"/>
<feGaussianBlur stdDeviation="8"/>
<feComposite in2="hardAlpha" operator="out"/>
<feColorMatrix type="matrix" values="0 0 0 0 0 0 0 0 0 0 0 0 0 0 0 0 0 0 0.08 0"/>
<feBlend mode="normal" in2="BackgroundImageFix" result="effect1_dropShadow_7478_6805"/>
<feBlend mode="normal" in="SourceGraphic" in2="effect1_dropShadow_7478_6805" result="shape"/>
</filter>
</defs>
</svg>
