<svg width="23" height="23" viewBox="0 0 23 23" fill="none" xmlns="http://www.w3.org/2000/svg">
<g opacity="0.8">
<path fill-rule="evenodd" clip-rule="evenodd" d="M3.67769 2.75781C3.19 2.75781 2.72229 2.95154 2.37745 3.29639C2.0326 3.64124 1.83887 4.10895 1.83887 4.59663V17.4684C1.83887 17.9561 2.0326 18.4238 2.37745 18.7686C2.72229 19.1135 3.19 19.3072 3.67769 19.3072H18.3883C18.8759 19.3072 19.3437 19.1135 19.6885 18.7686C20.0333 18.4238 20.2271 17.9561 20.2271 17.4684V4.59663C20.2271 4.10895 20.0333 3.64124 19.6885 3.29639C19.3437 2.95154 18.8759 2.75781 18.3883 2.75781H3.67769ZM7.92996 7.93409C7.95036 7.75832 8.01157 7.58974 8.10869 7.44182C8.20581 7.2939 8.33616 7.17072 8.48933 7.08212C8.64251 6.99352 8.81427 6.94195 8.99092 6.93152C9.16757 6.92108 9.34421 6.95208 9.50675 7.02204C9.97013 7.22063 10.9484 7.66747 12.1878 8.38277C13.0588 8.88057 13.8999 9.42886 14.7069 10.0248C14.8488 10.1304 14.9641 10.2677 15.0435 10.4257C15.1229 10.5838 15.1642 10.7582 15.1642 10.9351C15.1642 11.1119 15.1229 11.2863 15.0435 11.4444C14.9641 11.6024 14.8488 11.7397 14.7069 11.8453C13.8999 12.4406 13.0587 12.9883 12.1878 13.4855C11.3214 13.9915 10.4262 14.4465 9.50675 14.8481C9.34423 14.9182 9.16754 14.9494 8.99082 14.939C8.8141 14.9287 8.64225 14.8771 8.48902 14.7885C8.33579 14.6999 8.20542 14.5766 8.10835 14.4286C8.01127 14.2806 7.95018 14.1119 7.92996 13.936C7.81965 12.9395 7.76562 11.9376 7.76815 10.9351C7.76815 9.50904 7.87112 8.43517 7.92996 7.93409Z" fill="white"/>
</g>
</svg>
