<svg width="24" height="24" viewBox="0 0 24 24" fill="none" xmlns="http://www.w3.org/2000/svg">
<path id="Vector" d="M12 8.09474C9.84963 8.09474 8.09474 9.84963 8.09474 12C8.09474 14.1504 9.84963 15.9053 12 15.9053C14.1504 15.9053 15.9053 14.1504 15.9053 12C15.9053 9.84963 14.1504 8.09474 12 8.09474ZM23.7129 12C23.7129 10.3828 23.7276 8.78029 23.6367 7.16603C23.5459 5.29103 23.1182 3.62697 21.7471 2.25588C20.3731 0.881853 18.7119 0.457048 16.8369 0.366228C15.2197 0.275408 13.6172 0.290056 12.0029 0.290056C10.3858 0.290056 8.78322 0.275408 7.16896 0.366228C5.29396 0.457048 3.6299 0.884782 2.25881 2.25588C0.884783 3.6299 0.459978 5.29103 0.369158 7.16603C0.278337 8.78322 0.292986 10.3858 0.292986 12C0.292986 13.6143 0.278337 15.2197 0.369158 16.834C0.459978 18.709 0.887712 20.3731 2.25881 21.7442C3.63283 23.1182 5.29396 23.543 7.16896 23.6338C8.78615 23.7246 10.3887 23.71 12.0029 23.71C13.6201 23.71 15.2227 23.7246 16.8369 23.6338C18.7119 23.543 20.376 23.1153 21.7471 21.7442C23.1211 20.3701 23.5459 18.709 23.6367 16.834C23.7305 15.2197 23.7129 13.6172 23.7129 12ZM12 18.0088C8.67482 18.0088 5.99123 15.3252 5.99123 12C5.99123 8.67482 8.67482 5.99123 12 5.99123C15.3252 5.99123 18.0088 8.67482 18.0088 12C18.0088 15.3252 15.3252 18.0088 12 18.0088ZM18.2549 7.14845C17.4785 7.14845 16.8516 6.5215 16.8516 5.74513C16.8516 4.96877 17.4785 4.34181 18.2549 4.34181C19.0313 4.34181 19.6582 4.96877 19.6582 5.74513C19.6585 5.92949 19.6223 6.11207 19.5519 6.28244C19.4814 6.4528 19.3781 6.60759 19.2477 6.73795C19.1174 6.8683 18.9626 6.97166 18.7922 7.0421C18.6218 7.11255 18.4393 7.14869 18.2549 7.14845Z" fill="white"/>
</svg>
