<svg width="30" height="30" viewBox="0 0 30 30" fill="none" xmlns="http://www.w3.org/2000/svg">
<g id="Frame">
<path id="Vector" d="M18.2156 10.8672L16.2047 12.9555L16.1906 8.76922L18.2156 10.8672ZM16.1906 21.5666L18.2109 19.4686L16.2 17.3803L16.1906 21.5666ZM24 15.1655C24 25.1737 20.6297 27.4615 15.3234 27.4615C10.0172 27.4615 6 25.1737 6 15.1655C6 5.15732 9.90938 2.53845 15.2156 2.53845C20.5219 2.53845 24 5.16219 24 15.1655ZM16.5703 15.1655L20.2922 10.8526L14.4281 4.31519V12.9263L10.9688 9.33389L9.70312 10.6433L14.0484 15.1704L9.70312 19.6974L10.9641 21.0068L14.4234 17.4144L14.5312 25.6897L20.5031 19.4832L16.5703 15.1655Z" fill="#007A60"/>
</g>
</svg>
