<svg width="48" height="48" viewBox="0 0 48 48" fill="none" xmlns="http://www.w3.org/2000/svg">
<g id="form">
<path id="Vector (Stroke)" fill-rule="evenodd" clip-rule="evenodd" d="M7.5 6.75C7.5 4.67957 9.17957 3 11.25 3H21C26.1717 3 31.1316 5.05446 34.7886 8.71142C38.4455 12.3684 40.5 17.3283 40.5 22.5V41.25C40.5 43.3204 38.8204 45 36.75 45H11.25C9.17957 45 7.5 43.3204 7.5 41.25V6.75ZM37.5 23.25C37.5 21.8576 36.9469 20.5223 35.9623 19.5377C34.9777 18.5531 33.6424 18 32.25 18H29.25C28.2554 18 27.3016 17.6049 26.5984 16.9017C25.8951 16.1984 25.5 15.2446 25.5 14.25V11.25C25.5 9.85761 24.9469 8.52226 23.9623 7.53769C22.9777 6.55312 21.6424 6 20.25 6H11.25C10.8364 6 10.5 6.33643 10.5 6.75V41.25C10.5 41.6636 10.8364 42 11.25 42H36.75C37.1636 42 37.5 41.6636 37.5 41.25V23.25ZM27.515 7.34068C28.1558 8.53159 28.5 9.87305 28.5 11.25V14.25C28.5 14.4489 28.579 14.6397 28.7197 14.7803C28.8603 14.921 29.0511 15 29.25 15H32.25C33.6269 15 34.9684 15.3442 36.1593 15.985C35.3405 14.0797 34.1621 12.3276 32.6673 10.8327C31.1724 9.3379 29.4203 8.15951 27.515 7.34068ZM15 30C15 29.1716 15.6716 28.5 16.5 28.5H31.5C32.3284 28.5 33 29.1716 33 30C33 30.8284 32.3284 31.5 31.5 31.5H16.5C15.6716 31.5 15 30.8284 15 30ZM15 36C15 35.1716 15.6716 34.5 16.5 34.5H24C24.8284 34.5 25.5 35.1716 25.5 36C25.5 36.8284 24.8284 37.5 24 37.5H16.5C15.6716 37.5 15 36.8284 15 36Z" fill="#A3A3A3"/>
</g>
</svg>
