<svg width="22" height="22" viewBox="0 0 22 22" fill="none" xmlns="http://www.w3.org/2000/svg">
<g id="bluetooth">
<path id="Vector" d="M13.1814 8.03857L11.8191 9.45321L11.8096 6.61733L13.1814 8.03857ZM11.8096 15.2865L13.1782 13.8653L11.8159 12.4507L11.8096 15.2865ZM17.0998 10.9503C17.0998 17.73 14.8167 19.2799 11.2221 19.2799C7.62757 19.2799 4.90625 17.73 4.90625 10.9503C4.90625 4.17056 7.55454 2.39648 11.1491 2.39648C14.7436 2.39648 17.0998 4.17386 17.0998 10.9503ZM12.0668 10.9503L14.5881 8.02867L10.6156 3.60008V9.43342L8.27218 6.99984L7.41482 7.88688L10.3584 10.9536L7.41482 14.0203L8.269 14.9073L10.6124 12.4738L10.6855 18.0796L14.7309 13.8752L12.0668 10.9503Z" fill="#A3A3A3"/>
</g>
</svg>
