<svg xmlns="http://www.w3.org/2000/svg" width="28" height="27" viewBox="0 0 28 27" fill="none">
<g id="Group 796">
<path id="Vector (Stroke)" fill-rule="evenodd" clip-rule="evenodd" d="M6.4375 0.8125C6.95527 0.8125 7.375 1.23223 7.375 1.75V3.625H18.625V1.75C18.625 1.23223 19.0447 0.8125 19.5625 0.8125C20.0803 0.8125 20.5 1.23223 20.5 1.75V3.625H21.4375C22.4321 3.625 23.3859 4.02009 24.0892 4.72335C24.7924 5.42661 25.1875 6.38044 25.1875 7.375V21.4375C25.1875 22.4321 24.7924 23.3859 24.0892 24.0892C23.3859 24.7924 22.4321 25.1875 21.4375 25.1875H4.5625C3.56794 25.1875 2.61411 24.7924 1.91085 24.0892C1.20759 23.3859 0.8125 22.4321 0.8125 21.4375V7.375C0.8125 6.38044 1.20759 5.42661 1.91085 4.72335C2.61411 4.02009 3.56794 3.625 4.5625 3.625H5.5V1.75C5.5 1.23223 5.91973 0.8125 6.4375 0.8125ZM4.5625 5.5C4.06522 5.5 3.58831 5.69754 3.23667 6.04918C2.88504 6.40081 2.6875 6.87772 2.6875 7.375V8.81489C3.25272 8.48858 3.89853 8.3125 4.5625 8.3125H21.4375C22.1015 8.3125 22.7473 8.48859 23.3125 8.81489V7.375C23.3125 6.87772 23.115 6.40081 22.7633 6.04918C22.4117 5.69754 21.9348 5.5 21.4375 5.5H4.5625ZM23.3125 12.0625C23.3125 11.5652 23.115 11.0883 22.7633 10.7367C22.4117 10.385 21.9348 10.1875 21.4375 10.1875H4.5625C4.06522 10.1875 3.58831 10.385 3.23667 10.7367C2.88504 11.0883 2.6875 11.5652 2.6875 12.0625V21.4375C2.6875 21.9348 2.88504 22.4117 3.23667 22.7633C3.58831 23.115 4.06522 23.3125 4.5625 23.3125H21.4375C21.9348 23.3125 22.4117 23.115 22.7633 22.7633C23.115 22.4117 23.3125 21.9348 23.3125 21.4375V12.0625ZM12.0625 13.9375C12.0625 13.4197 12.4822 13 13 13H13.01C13.5278 13 13.9475 13.4197 13.9475 13.9375V13.9475C13.9475 14.4653 13.5278 14.885 13.01 14.885H13C12.4822 14.885 12.0625 14.4653 12.0625 13.9475V13.9375ZM14.875 13.9375C14.875 13.4197 15.2947 13 15.8125 13H15.8225C16.3403 13 16.76 13.4197 16.76 13.9375V13.9475C16.76 14.4653 16.3403 14.885 15.8225 14.885H15.8125C15.2947 14.885 14.875 14.4653 14.875 13.9475V13.9375ZM17.6875 13.9375C17.6875 13.4197 18.1072 13 18.625 13H18.635C19.1528 13 19.5725 13.4197 19.5725 13.9375V13.9475C19.5725 14.4653 19.1528 14.885 18.635 14.885H18.625C18.1072 14.885 17.6875 14.4653 17.6875 13.9475V13.9375ZM6.4375 16.75C6.4375 16.2322 6.85723 15.8125 7.375 15.8125H7.385C7.90277 15.8125 8.3225 16.2322 8.3225 16.75V16.76C8.3225 17.2778 7.90277 17.6975 7.385 17.6975H7.375C6.85723 17.6975 6.4375 17.2778 6.4375 16.76V16.75ZM9.25 16.75C9.25 16.2322 9.66973 15.8125 10.1875 15.8125H10.1975C10.7153 15.8125 11.135 16.2322 11.135 16.75V16.76C11.135 17.2778 10.7153 17.6975 10.1975 17.6975H10.1875C9.66973 17.6975 9.25 17.2778 9.25 16.76V16.75ZM12.0625 16.75C12.0625 16.2322 12.4822 15.8125 13 15.8125H13.01C13.5278 15.8125 13.9475 16.2322 13.9475 16.75V16.76C13.9475 17.2778 13.5278 17.6975 13.01 17.6975H13C12.4822 17.6975 12.0625 17.2778 12.0625 16.76V16.75ZM14.875 16.75C14.875 16.2322 15.2947 15.8125 15.8125 15.8125H15.8225C16.3403 15.8125 16.76 16.2322 16.76 16.75V16.76C16.76 17.2778 16.3403 17.6975 15.8225 17.6975H15.8125C15.2947 17.6975 14.875 17.2778 14.875 16.76V16.75ZM17.6875 16.75C17.6875 16.2322 18.1072 15.8125 18.625 15.8125H18.635C19.1528 15.8125 19.5725 16.2322 19.5725 16.75V16.76C19.5725 17.2778 19.1528 17.6975 18.635 17.6975H18.625C18.1072 17.6975 17.6875 17.2778 17.6875 16.76V16.75ZM6.4375 19.5625C6.4375 19.0447 6.85723 18.625 7.375 18.625H7.385C7.90277 18.625 8.3225 19.0447 8.3225 19.5625V19.5725C8.3225 20.0903 7.90277 20.51 7.385 20.51H7.375C6.85723 20.51 6.4375 20.0903 6.4375 19.5725V19.5625ZM9.25 19.5625C9.25 19.0447 9.66973 18.625 10.1875 18.625H10.1975C10.7153 18.625 11.135 19.0447 11.135 19.5625V19.5725C11.135 20.0903 10.7153 20.51 10.1975 20.51H10.1875C9.66973 20.51 9.25 20.0903 9.25 19.5725V19.5625ZM12.0625 19.5625C12.0625 19.0447 12.4822 18.625 13 18.625H13.01C13.5278 18.625 13.9475 19.0447 13.9475 19.5625V19.5725C13.9475 20.0903 13.5278 20.51 13.01 20.51H13C12.4822 20.51 12.0625 20.0903 12.0625 19.5725V19.5625ZM14.875 19.5625C14.875 19.0447 15.2947 18.625 15.8125 18.625H15.8225C16.3403 18.625 16.76 19.0447 16.76 19.5625V19.5725C16.76 20.0903 16.3403 20.51 15.8225 20.51H15.8125C15.2947 20.51 14.875 20.0903 14.875 19.5725V19.5625Z" fill="#0d5995"/>
<g id="Group 795">
<circle id="Ellipse 4" cx="22.375" cy="21.125" r="5.625" fill="white"/>
<path id="Vector" fill-rule="evenodd" clip-rule="evenodd" d="M22.375 15.5C19.2683 15.5 16.75 18.0183 16.75 21.125C16.75 24.2317 19.2683 26.75 22.375 26.75C25.4817 26.75 28 24.2317 28 21.125C28 18.0183 25.4817 15.5 22.375 15.5ZM22.8077 19.3942C22.8077 19.2795 22.7621 19.1694 22.681 19.0883C22.5998 19.0071 22.4898 18.9615 22.375 18.9615C22.2602 18.9615 22.1502 19.0071 22.069 19.0883C21.9879 19.1694 21.9423 19.2795 21.9423 19.3942V20.6923H20.6442C20.5295 20.6923 20.4194 20.7379 20.3383 20.819C20.2571 20.9002 20.2115 21.0102 20.2115 21.125C20.2115 21.2398 20.2571 21.3498 20.3383 21.431C20.4194 21.5121 20.5295 21.5577 20.6442 21.5577H21.9423V22.8558C21.9423 22.9705 21.9879 23.0806 22.069 23.1617C22.1502 23.2429 22.2602 23.2885 22.375 23.2885C22.4898 23.2885 22.5998 23.2429 22.681 23.1617C22.7621 23.0806 22.8077 22.9705 22.8077 22.8558V21.5577H24.1058C24.2205 21.5577 24.3306 21.5121 24.4117 21.431C24.4929 21.3498 24.5385 21.2398 24.5385 21.125C24.5385 21.0102 24.4929 20.9002 24.4117 20.819C24.3306 20.7379 24.2205 20.6923 24.1058 20.6923H22.8077V19.3942Z" fill="#0d5995"/>
</g>
</g>
</svg>