<svg width="30" height="30" viewBox="0 0 30 30" fill="none" xmlns="http://www.w3.org/2000/svg">
<g id="Solid heart">
<path id="Vector" d="M14.5563 26.1376L14.5475 26.1338L14.52 26.1188C14.3591 26.0303 14.1995 25.9395 14.0413 25.8463C12.1385 24.7157 10.3603 23.3875 8.73625 21.8838C5.86 19.2001 2.8125 15.2176 2.8125 10.3126C2.8125 6.65259 5.8925 3.75009 9.61 3.75009C10.6434 3.74503 11.6647 3.97301 12.5979 4.4171C13.5311 4.86118 14.3521 5.50992 15 6.31509C15.648 5.50976 16.4693 4.86091 17.4027 4.41682C18.3361 3.97274 19.3576 3.74484 20.3913 3.75009C24.1075 3.75009 27.1875 6.65259 27.1875 10.3126C27.1875 15.2188 24.14 19.2013 21.2638 21.8826C19.6397 23.3863 17.8615 24.7145 15.9587 25.8451C15.8005 25.9386 15.6409 26.0299 15.48 26.1188L15.4525 26.1338L15.4437 26.1388L15.44 26.1401C15.3045 26.2119 15.1534 26.2494 15 26.2494C14.8466 26.2494 14.6955 26.2119 14.56 26.1401L14.5563 26.1376Z" fill="#DC2626"/>
</g>
</svg>
