<?xml version="1.0" encoding="UTF-8"?>
<svg xmlns="http://www.w3.org/2000/svg" xmlns:xlink="http://www.w3.org/1999/xlink" width="25px" height="25px" viewBox="0 0 25 25" version="1.1">
<defs>
<filter id="alpha" filterUnits="objectBoundingBox" x="0%" y="0%" width="100%" height="100%">
  <feColorMatrix type="matrix" in="SourceGraphic" values="0 0 0 0 1 0 0 0 0 1 0 0 0 0 1 0 0 0 1 0"/>
</filter>
<mask id="mask0">
  <g filter="url(#alpha)">
<rect x="0" y="0" width="25" height="25" style="fill:rgb(0%,0%,0%);fill-opacity:0.972549;stroke:none;"/>
  </g>
</mask>
<clipPath id="clip1">
  <rect x="0" y="0" width="25" height="25"/>
</clipPath>
<g id="surface5" clip-path="url(#clip1)">
<path style=" stroke:none;fill-rule:evenodd;fill:rgb(53.725493%,72.549021%,88.627452%);fill-opacity:1;" d="M 24.832031 10.03125 C 24.832031 11.898438 24.832031 13.761719 24.832031 15.625 C 23.464844 19.9375 20.6875 23.007812 16.5 24.835938 C 13.722656 24.835938 10.945312 24.835938 8.167969 24.835938 C 3.972656 23 1.191406 19.929688 -0.167969 15.625 C -0.167969 13.761719 -0.167969 11.898438 -0.167969 10.03125 C 2.699219 2.3125 8.253906 -0.703125 16.5 0.988281 C 20.769531 2.730469 23.546875 5.746094 24.832031 10.03125 Z M 24.832031 10.03125 "/>
</g>
</defs>
<g id="surface1">
<use xlink:href="#surface5" mask="url(#mask0)"/>
<path style=" stroke:none;fill-rule:evenodd;fill:rgb(96.078432%,97.647059%,98.823529%);fill-opacity:1;" d="M 9.167969 3.453125 C 9.953125 3.398438 10.730469 3.453125 11.5 3.617188 C 14.027344 4.558594 16.582031 5.4375 19.167969 6.25 C 19.671875 9.011719 19.839844 11.808594 19.667969 14.636719 C 19.109375 15.902344 18.277344 16.945312 17.167969 17.761719 C 15.429688 18.734375 13.652344 19.5 11.832031 20.066406 C 12.148438 19.828125 12.207031 19.554688 12 19.242188 C 10.6875 19.695312 9.410156 20.242188 8.167969 20.886719 C 8.054688 20.777344 7.945312 20.667969 7.832031 20.558594 C 8.210938 19.804688 8.65625 19.089844 9.167969 18.421875 C 7.394531 18.554688 5.617188 18.664062 3.832031 18.75 C 5.390625 16.667969 6.945312 14.582031 8.5 12.5 C 6.894531 10.539062 6.394531 8.289062 7 5.757812 C 7.566406 4.816406 8.285156 4.050781 9.167969 3.453125 Z M 9.167969 3.453125 "/>
<path style=" stroke:none;fill-rule:evenodd;fill:rgb(59.607846%,76.078433%,89.803922%);fill-opacity:1;" d="M 9.167969 4.441406 C 12.394531 4.84375 15.503906 5.722656 18.5 7.074219 C 18.929688 8.128906 18.929688 9.167969 18.5 10.199219 C 19.730469 13.910156 18.507812 16.539062 14.832031 18.09375 C 14.5 18.3125 14.167969 18.3125 13.832031 18.09375 C 14.148438 17.855469 14.207031 17.582031 14 17.269531 C 12.71875 18.300781 11.332031 18.851562 9.832031 18.914062 C 10.082031 18.3125 10.417969 17.761719 10.832031 17.269531 C 10.722656 17.160156 10.609375 17.050781 10.5 16.941406 C 8.886719 17.585938 7.21875 17.859375 5.5 17.761719 C 6.84375 16.261719 8.066406 14.671875 9.167969 12.992188 C 9.457031 12.746094 9.792969 12.582031 10.167969 12.5 C 9.082031 11.976562 8.359375 11.15625 8 10.03125 C 7.777344 8.609375 7.777344 7.183594 8 5.757812 C 8.230469 5.148438 8.617188 4.710938 9.167969 4.441406 Z M 9.167969 4.441406 "/>
<path style=" stroke:none;fill-rule:evenodd;fill:rgb(98.431373%,99.215686%,99.607843%);fill-opacity:1;" d="M 9.167969 5.097656 C 10.0625 5.042969 10.953125 5.097656 11.832031 5.261719 C 13.914062 6.074219 16.027344 6.789062 18.167969 7.402344 C 18.167969 7.949219 18.167969 8.496094 18.167969 9.046875 C 16.355469 8.886719 14.578125 8.558594 12.832031 8.058594 C 12.171875 8.320312 12.058594 8.703125 12.5 9.210938 C 13.941406 9.460938 15.382812 9.679688 16.832031 9.867188 C 18.40625 10.667969 18.90625 11.929688 18.332031 13.652344 C 17.929688 15.199219 16.988281 16.296875 15.5 16.941406 C 15.445312 16.644531 15.332031 16.316406 15.167969 15.953125 C 13.914062 16.847656 12.582031 17.449219 11.167969 17.761719 C 11.5 17.214844 11.832031 16.667969 12.167969 16.117188 C 12 16.0625 11.832031 16.007812 11.667969 15.953125 C 10.214844 16.574219 8.714844 16.847656 7.167969 16.777344 C 7.984375 15.765625 8.761719 14.722656 9.5 13.652344 C 11.574219 13.152344 13.6875 12.878906 15.832031 12.828125 C 16.113281 12.496094 16.222656 12.113281 16.167969 11.675781 C 14.050781 11.730469 11.941406 11.675781 9.832031 11.511719 C 9.316406 11.113281 8.929688 10.621094 8.667969 10.03125 C 8.316406 8.292969 8.484375 6.648438 9.167969 5.097656 Z M 9.167969 5.097656 "/>
</g>
</svg>
