<svg width="22" height="20" viewBox="0 0 22 20" fill="none" xmlns="http://www.w3.org/2000/svg">
<path id="Vector" d="M0 0.9375C0 0.417969 0.412176 0 0.924507 0H2.67722C3.52468 0 4.27584 0.5 4.62638 1.25H20.4586C21.4717 1.25 22.2113 2.22656 21.9455 3.21875L20.3661 9.16797C20.0387 10.3945 18.9408 11.25 17.6889 11.25H6.57555L6.78357 12.3633C6.86831 12.8047 7.24967 13.125 7.69267 13.125H18.7983C19.3106 13.125 19.7228 13.543 19.7228 14.0625C19.7228 14.582 19.3106 15 18.7983 15H7.69267C6.35983 15 5.21576 14.0391 4.96922 12.7148L2.98153 2.12891C2.95457 1.98047 2.82745 1.875 2.67722 1.875H0.924507C0.412176 1.875 0 1.45703 0 0.9375ZM4.9307 18.125C4.9307 17.8788 4.97853 17.635 5.07145 17.4075C5.16437 17.18 5.30057 16.9733 5.47226 16.7992C5.64396 16.6251 5.8478 16.487 6.07213 16.3927C6.29646 16.2985 6.5369 16.25 6.77972 16.25C7.02253 16.25 7.26297 16.2985 7.4873 16.3927C7.71163 16.487 7.91547 16.6251 8.08716 16.7992C8.25886 16.9733 8.39506 17.18 8.48798 17.4075C8.5809 17.635 8.62873 17.8788 8.62873 18.125C8.62873 18.3712 8.5809 18.615 8.48798 18.8425C8.39506 19.07 8.25886 19.2767 8.08716 19.4508C7.91547 19.6249 7.71163 19.763 7.4873 19.8573C7.26297 19.9515 7.02253 20 6.77972 20C6.5369 20 6.29646 19.9515 6.07213 19.8573C5.8478 19.763 5.64396 19.6249 5.47226 19.4508C5.30057 19.2767 5.16437 19.07 5.07145 18.8425C4.97853 18.615 4.9307 18.3712 4.9307 18.125ZM17.8738 16.25C18.3642 16.25 18.8345 16.4475 19.1812 16.7992C19.528 17.1508 19.7228 17.6277 19.7228 18.125C19.7228 18.6223 19.528 19.0992 19.1812 19.4508C18.8345 19.8025 18.3642 20 17.8738 20C17.3834 20 16.9131 19.8025 16.5663 19.4508C16.2196 19.0992 16.0248 18.6223 16.0248 18.125C16.0248 17.6277 16.2196 17.1508 16.5663 16.7992C16.9131 16.4475 17.3834 16.25 17.8738 16.25Z" fill="white"/>
</svg>
