<svg width="20" height="20" viewBox="0 0 20 20" fill="none" xmlns="http://www.w3.org/2000/svg">
<g id="mini/chevron-right">
<path id="Vector" fill-rule="evenodd" clip-rule="evenodd" d="M7.86477 4.26394C8.03352 4.0954 8.26227 4.00073 8.50077 4.00073C8.73927 4.00073 8.96802 4.0954 9.13677 4.26394L14.2368 9.36394C14.4053 9.53269 14.5 9.76144 14.5 9.99994C14.5 10.2384 14.4053 10.4672 14.2368 10.6359L9.13677 15.7359C8.96616 15.8949 8.74051 15.9815 8.50734 15.9774C8.27418 15.9732 8.05172 15.8788 7.88682 15.7139C7.72193 15.549 7.62747 15.3265 7.62336 15.0934C7.61925 14.8602 7.70579 14.6346 7.86477 14.4639L12.3288 9.99994L7.86477 5.53594C7.69623 5.36719 7.60156 5.13844 7.60156 4.89994C7.60156 4.66144 7.69623 4.43269 7.86477 4.26394Z" fill="#007A60"/>
</g>
</svg>
