<svg width="40" height="40" viewBox="0 0 40 40" fill="none" xmlns="http://www.w3.org/2000/svg">
<path d="M19.9998 25.9584C19.7776 25.9584 19.5693 25.924 19.3748 25.8551C19.1804 25.7862 18.9998 25.6679 18.8332 25.5001L12.8332 19.5001C12.4998 19.1668 12.3398 18.7779 12.3532 18.3334C12.3665 17.889 12.5265 17.5001 12.8332 17.1668C13.1665 16.8334 13.5626 16.6601 14.0215 16.6468C14.4804 16.6334 14.8759 16.7929 15.2082 17.1251L18.3332 20.2501V8.33342C18.3332 7.8612 18.4932 7.46564 18.8132 7.14675C19.1332 6.82787 19.5287 6.66786 19.9998 6.66675C20.4709 6.66564 20.8671 6.82564 21.1882 7.14675C21.5093 7.46787 21.6687 7.86342 21.6665 8.33342V20.2501L24.7915 17.1251C25.1248 16.7918 25.5209 16.6318 25.9798 16.6451C26.4387 16.6584 26.8343 16.8323 27.1665 17.1668C27.4721 17.5001 27.6321 17.889 27.6465 18.3334C27.6609 18.7779 27.5009 19.1668 27.1665 19.5001L21.1665 25.5001C20.9998 25.6668 20.8193 25.7851 20.6248 25.8551C20.4304 25.9251 20.2221 25.9595 19.9998 25.9584ZM9.99984 33.3334C9.08317 33.3334 8.29873 33.0073 7.6465 32.3551C6.99428 31.7029 6.66762 30.9179 6.6665 30.0001V26.6668C6.6665 26.1945 6.8265 25.799 7.1465 25.4801C7.4665 25.1612 7.86206 25.0012 8.33317 25.0001C8.80428 24.999 9.20039 25.159 9.5215 25.4801C9.84261 25.8012 10.0021 26.1968 9.99984 26.6668V30.0001H29.9998V26.6668C29.9998 26.1945 30.1598 25.799 30.4798 25.4801C30.7998 25.1612 31.1954 25.0012 31.6665 25.0001C32.1376 24.999 32.5337 25.159 32.8548 25.4801C33.1759 25.8012 33.3354 26.1968 33.3332 26.6668V30.0001C33.3332 30.9168 33.0071 31.7018 32.3548 32.3551C31.7026 33.0084 30.9176 33.3345 29.9998 33.3334H9.99984Z" fill="#007A60"/>
</svg>
