<svg width="30" height="30" viewBox="0 0 30 30" fill="none" xmlns="http://www.w3.org/2000/svg">
<g id="building-storefront">
<g id="Vector">
<path d="M8.22482 5.5C7.72795 5.5 7.25108 5.69292 6.90017 6.0359L5.60052 7.30062C4.92893 7.95395 4.53652 8.83118 4.50242 9.7554C4.46833 10.6796 4.79509 11.582 5.41682 12.2807C6.03854 12.9793 6.90896 13.4222 7.85253 13.52C8.7961 13.6178 9.74263 13.3633 10.5012 12.8077C11.128 13.2656 11.9068 13.5385 12.7506 13.5385C13.5944 13.5385 14.3742 13.2656 15 12.8077C15.6258 13.2656 16.4056 13.5385 17.2494 13.5385C18.0932 13.5385 18.872 13.2656 19.4988 12.8077C20.2574 13.3633 21.2039 13.6178 22.1475 13.52C23.091 13.4222 23.9615 12.9793 24.5832 12.2807C25.2049 11.582 25.5317 10.6796 25.4976 9.7554C25.4635 8.83118 25.0711 7.95395 24.3995 7.30062L23.0998 6.03492C22.7485 5.69257 22.272 5.50017 21.7752 5.5H8.22482Z" fill="#007A60"/>
<path fill-rule="evenodd" clip-rule="evenodd" d="M6.00241 23.0385V14.5079C7.42203 15.1647 9.08159 15.1637 10.5012 14.5079C11.2041 14.8329 11.9726 15.001 12.7506 15C13.5544 15 14.3182 14.8227 15 14.507C15.7029 14.8323 16.4713 15.0007 17.2494 15C18.0532 15 18.816 14.8227 19.4988 14.507C20.9184 15.1637 22.578 15.1647 23.9976 14.5079V23.0385H24.7474C24.9462 23.0385 25.137 23.1155 25.2776 23.2525C25.4182 23.3895 25.4972 23.5754 25.4972 23.7692C25.4972 23.963 25.4182 24.1489 25.2776 24.286C25.137 24.423 24.9462 24.5 24.7474 24.5H5.25261C5.05376 24.5 4.86304 24.423 4.72243 24.286C4.58181 24.1489 4.50282 23.963 4.50282 23.7692C4.50282 23.5754 4.58181 23.3895 4.72243 23.2525C4.86304 23.1155 5.05376 23.0385 5.25261 23.0385H6.00241ZM9.00161 17.1923C9.00161 16.9985 9.08061 16.8126 9.22122 16.6756C9.36183 16.5385 9.55255 16.4615 9.75141 16.4615H12.7506C12.9495 16.4615 13.1402 16.5385 13.2808 16.6756C13.4214 16.8126 13.5004 16.9985 13.5004 17.1923V20.1154C13.5004 20.3092 13.4214 20.4951 13.2808 20.6321C13.1402 20.7692 12.9495 20.8462 12.7506 20.8462H9.75141C9.55255 20.8462 9.36183 20.7692 9.22122 20.6321C9.08061 20.4951 9.00161 20.3092 9.00161 20.1154V17.1923ZM17.2494 16.4615C17.0505 16.4615 16.8598 16.5385 16.7192 16.6756C16.5786 16.8126 16.4996 16.9985 16.4996 17.1923V22.3077C16.4996 22.7111 16.8355 23.0385 17.2494 23.0385H20.2486C20.4475 23.0385 20.6382 22.9615 20.7788 22.8244C20.9194 22.6874 20.9984 22.5015 20.9984 22.3077V17.1923C20.9984 16.9985 20.9194 16.8126 20.7788 16.6756C20.6382 16.5385 20.4475 16.4615 20.2486 16.4615H17.2494Z" fill="#007A60"/>
</g>
</g>
</svg>
