<svg width="30" height="30" viewBox="0 0 30 30" fill="none" xmlns="http://www.w3.org/2000/svg">
<g id="beacon">
<path id="Vector" d="M15.9375 26.25H14.0625V16.121C12.45 15.6806 11.25 14.0992 11.25 12.2375C11.25 10.0356 12.9375 8.23399 15 8.23399C17.0625 8.23399 18.75 10.0356 18.75 12.2375C18.75 14.0992 17.55 15.6606 15.9375 16.121V26.25ZM15 10.2358C13.9687 10.2358 13.125 11.1366 13.125 12.2375C13.125 13.3385 13.9687 14.2393 15 14.2393C16.0313 14.2393 16.875 13.3385 16.875 12.2375C16.875 11.1366 16.0313 10.2358 15 10.2358ZM22.95 20.7451L21.6187 19.3238C23.3625 17.4622 24.375 14.8799 24.3562 12.2576C24.3562 9.57518 23.3812 7.07295 21.6187 5.17126L22.95 3.75C25.0687 6.01201 26.25 9.0347 26.25 12.2375C26.25 15.4004 25.05 18.5031 22.95 20.7251V20.7451ZM7.05 20.7451C4.9125 18.4631 3.75 15.4604 3.75 12.2375C3.75 9.07473 4.95 5.99199 7.05 3.75L8.38125 5.17126C6.6375 7.03292 5.625 9.61521 5.64375 12.2375C5.64375 14.9199 6.61875 17.4222 8.38125 19.3238L7.05 20.7451ZM20.3062 17.9026L18.975 16.4813C20.025 15.3603 20.625 13.8189 20.625 12.2375C20.625 10.6361 20.0437 9.11477 18.975 7.99377L20.3062 6.57251C21.7312 8.07384 22.5 10.0956 22.5 12.2375C22.5 14.3394 21.6937 16.4012 20.3062 17.9026ZM9.69375 17.9026C8.26875 16.3812 7.5 14.3794 7.5 12.2375C7.5 10.1357 8.30625 8.07384 9.69375 6.57251L11.025 7.99377C9.975 9.11477 9.375 10.6561 9.375 12.2375C9.375 13.839 9.95625 15.3403 11.025 16.4813L9.69375 17.9026Z" fill="#007A60"/>
</g>
</svg>
