<svg width="24" height="24" viewBox="0 0 24 24" fill="none" xmlns="http://www.w3.org/2000/svg">
<g id="home">
<path id="Vector" d="M18.1977 21.6H5.8023C4.80172 21.6 3.97601 20.7842 3.97601 19.7742V11.7038L3.03372 12.6458C2.75201 12.9275 2.28572 12.9275 2.00401 12.6458C1.7223 12.3642 1.7223 11.898 2.00401 11.6164L10.708 2.91473C11.3977 2.2252 12.5926 2.2252 13.2823 2.91473L21.9863 11.6067C22.268 11.8883 22.268 12.3545 21.9863 12.6361C21.7046 12.9178 21.2383 12.9178 20.9566 12.6361L20.0143 11.6941V19.7645C20.0143 20.7648 19.1983 21.5903 18.188 21.5903L18.1977 21.6ZM16.3714 20.1433H18.1977C18.4017 20.1433 18.5669 19.9782 18.5669 19.7742V10.2471L12.2526 3.94417C12.068 3.75965 11.9223 3.75965 11.7377 3.94417L5.44287 10.2373V19.7645C5.44287 19.9684 5.60801 20.1335 5.81201 20.1335H9.09544V16.1323C9.09544 15.132 9.91144 14.3065 10.9217 14.3065H13.1074C14.108 14.3065 14.9337 15.1223 14.9337 16.1323V20.1335H16.3909L16.3714 20.1433ZM10.5429 20.1433H13.4572V16.142C13.4572 15.9381 13.292 15.773 13.088 15.773H10.9023C10.6983 15.773 10.5332 15.9381 10.5332 16.142V20.1433H10.5429Z" fill="white"/>
</g>
</svg>
