<svg xmlns="http://www.w3.org/2000/svg" width="31" height="30" viewBox="0 0 31 30" fill="none">
<g id="activity">
<path id="Union" fill-rule="evenodd" clip-rule="evenodd" d="M4.71875 5.625C3.42473 5.625 2.375 6.67473 2.375 7.96875V11.7513C2.375 12.0866 2.55411 12.3964 2.84472 12.5637C3.27287 12.8102 3.6285 13.1652 3.87578 13.5929C4.12306 14.0206 4.25326 14.506 4.25326 15C4.25326 15.494 4.12306 15.9794 3.87578 16.4071C3.6285 16.8348 3.27287 17.1898 2.84472 17.4363C2.55411 17.6036 2.375 17.9134 2.375 18.2487V22.0312C2.375 23.3253 3.42473 24.375 4.71875 24.375H26.2812C27.5753 24.375 28.625 23.3253 28.625 22.0312V18.2487C28.625 17.9134 28.4459 17.6036 28.1553 17.4363C27.7271 17.1898 27.3715 16.8348 27.1242 16.4071C26.8769 15.9794 26.7467 15.494 26.7467 15C26.7467 14.506 26.8769 14.0206 27.1242 13.5929C27.3715 13.1652 27.7271 12.8102 28.1553 12.5637C28.4459 12.3964 28.625 12.0866 28.625 11.7513V7.96875C28.625 6.67473 27.5753 5.625 26.2812 5.625H4.71875ZM4.25 7.96875C4.25 7.71027 4.46027 7.5 4.71875 7.5H26.2812C26.5397 7.5 26.75 7.71027 26.75 7.96875V11.2482C26.2445 11.6266 25.819 12.1044 25.501 12.6545C25.0888 13.3674 24.8717 14.1764 24.8717 15C24.8717 15.8236 25.0888 16.6326 25.501 17.3455C25.819 17.8956 26.2445 18.3734 26.75 18.7518V22.0312C26.75 22.2897 26.5397 22.5 26.2812 22.5H4.71875C4.46027 22.5 4.25 22.2897 4.25 22.0312V18.7518C4.75555 18.3734 5.18103 17.8956 5.49902 17.3455C5.91122 16.6326 6.12826 15.8236 6.12826 15C6.12826 14.1764 5.91122 13.3674 5.49902 12.6545C5.18103 12.1044 4.75555 11.6266 4.25 11.2482V7.96875ZM16.9032 13.0686L15.5 8.75L14.0968 13.0686H9.5559L13.2296 15.7377L11.8263 20.0564L15.5 17.3873L19.1737 20.0564L17.7704 15.7377L21.4441 13.0686H16.9032Z" fill="#0d5995"/>
</g>
</svg>