<svg width="30" height="30" viewBox="0 0 30 30" fill="none" xmlns="http://www.w3.org/2000/svg">
<g id="heart">
<path id="Vector (Stroke)" fill-rule="evenodd" clip-rule="evenodd" d="M2.8125 10.3125C2.8125 6.65271 5.89374 3.75 9.60875 3.75C11.795 3.75 13.7528 4.74845 15 6.31394C16.2471 4.7485 18.2047 3.75 20.39 3.75C24.1075 3.75 27.1875 6.65271 27.1875 10.3125C27.1875 15.2185 24.1402 19.2016 21.2643 21.8826C19.811 23.2374 18.3616 24.2974 17.2768 25.0186C16.7336 25.3798 16.2794 25.6575 15.9588 25.8461C15.7985 25.9405 15.6714 26.0126 15.5831 26.0619C15.5389 26.0866 15.5044 26.1055 15.4803 26.1186L15.452 26.1339L15.4438 26.1383L15.4413 26.1397C15.4409 26.1398 15.4397 26.1405 15 25.3125C14.5603 26.1405 14.56 26.1403 14.5596 26.1401L14.5562 26.1383L14.548 26.1339L14.5197 26.1186C14.4956 26.1055 14.4611 26.0866 14.4169 26.0619C14.3286 26.0126 14.2015 25.9405 14.0412 25.8461C13.7206 25.6575 13.2664 25.3798 12.7232 25.0186C11.6384 24.2974 10.189 23.2374 8.73573 21.8826C5.85978 19.2016 2.8125 15.2185 2.8125 10.3125ZM15 25.3125L14.5596 26.1401C14.8346 26.2862 15.1648 26.2865 15.4397 26.1405L15 25.3125ZM15 24.2348C15.0026 24.2333 15.0053 24.2317 15.008 24.2301C15.3026 24.0568 15.7274 23.7972 16.2388 23.4572C17.2634 22.776 18.6265 21.7782 19.9857 20.5111C22.7348 17.9484 25.3125 14.4315 25.3125 10.3125C25.3125 7.75979 23.145 5.625 20.39 5.625C18.3378 5.625 16.5982 6.81794 15.8565 8.48485C15.706 8.82322 15.3704 9.04125 15 9.04125C14.6296 9.04125 14.294 8.82322 14.1435 8.48485C13.4018 6.81804 11.6623 5.625 9.60875 5.625C6.85626 5.625 4.6875 7.75979 4.6875 10.3125C4.6875 14.4315 7.26522 17.9484 10.0143 20.5111C11.3735 21.7782 12.7366 22.776 13.7612 23.4572C14.2726 23.7972 14.6974 24.0568 14.992 24.2301C14.9947 24.2317 14.9974 24.2333 15 24.2348Z" fill="#737373"/>
</g>
</svg>
