<svg width="24" height="24" viewBox="0 0 24 24" fill="none" xmlns="http://www.w3.org/2000/svg">
<g id="ticket">
<path id="Vector (Stroke)" fill-rule="evenodd" clip-rule="evenodd" d="M1.3501 6.37498C1.3501 5.25692 2.25704 4.34998 3.3751 4.34998H20.6251C21.7432 4.34998 22.6501 5.25692 22.6501 6.37498V9.40098C22.6501 9.7229 22.4782 10.0203 22.1992 10.1809C21.8795 10.365 21.614 10.63 21.4293 10.9494C21.2447 11.2687 21.1475 11.6311 21.1475 12C21.1475 12.3689 21.2447 12.7312 21.4293 13.0506C21.614 13.3699 21.8795 13.635 22.1992 13.819C22.4782 13.9796 22.6501 14.2771 22.6501 14.599V17.625C22.6501 18.743 21.7432 19.65 20.6251 19.65H3.3751C2.25704 19.65 1.3501 18.743 1.3501 17.625V14.599C1.3501 14.2771 1.52204 13.9796 1.80103 13.819C2.12071 13.635 2.38623 13.3699 2.57086 13.0506C2.75549 12.7312 2.8527 12.3689 2.8527 12C2.8527 11.6311 2.75549 11.2687 2.57086 10.9494C2.38623 10.63 2.12071 10.365 1.80103 10.1809C1.52204 10.0203 1.3501 9.7229 1.3501 9.40098V6.37498ZM3.3751 6.14998C3.25115 6.14998 3.1501 6.25103 3.1501 6.37498V8.92435C3.54438 9.23156 3.8773 9.61281 4.12917 10.0485C4.47213 10.6417 4.6527 11.3148 4.6527 12C4.6527 12.6852 4.47213 13.3583 4.12917 13.9515C3.8773 14.3871 3.54438 14.7684 3.1501 15.0756V17.625C3.1501 17.7489 3.25115 17.85 3.3751 17.85H15.6001V17.25C15.6001 16.7529 16.003 16.35 16.5001 16.35C16.9972 16.35 17.4001 16.7529 17.4001 17.25V17.85H20.6251C20.749 17.85 20.8501 17.7489 20.8501 17.625V15.0756C20.4558 14.7684 20.1229 14.3871 19.871 13.9515C19.5281 13.3583 19.3475 12.6852 19.3475 12C19.3475 11.3148 19.5281 10.6417 19.871 10.0485C20.1229 9.61281 20.4558 9.23156 20.8501 8.92435V6.37498C20.8501 6.25103 20.749 6.14998 20.6251 6.14998H17.4001V6.74998C17.4001 7.24703 16.9972 7.64998 16.5001 7.64998C16.003 7.64998 15.6001 7.24703 15.6001 6.74998V6.14998H3.3751ZM16.5001 8.84998C16.9972 8.84998 17.4001 9.25292 17.4001 9.74998V10.5C17.4001 10.997 16.9972 11.4 16.5001 11.4C16.003 11.4 15.6001 10.997 15.6001 10.5V9.74998C15.6001 9.25292 16.003 8.84998 16.5001 8.84998ZM6.6001 12.75C6.6001 12.2529 7.00304 11.85 7.5001 11.85H12.7501C13.2472 11.85 13.6501 12.2529 13.6501 12.75C13.6501 13.247 13.2472 13.65 12.7501 13.65H7.5001C7.00304 13.65 6.6001 13.247 6.6001 12.75ZM16.5001 12.6C16.9972 12.6 17.4001 13.0029 17.4001 13.5V14.25C17.4001 14.747 16.9972 15.15 16.5001 15.15C16.003 15.15 15.6001 14.747 15.6001 14.25V13.5C15.6001 13.0029 16.003 12.6 16.5001 12.6ZM6.6001 15C6.6001 14.5029 7.00304 14.1 7.5001 14.1H10.5001C10.9972 14.1 11.4001 14.5029 11.4001 15C11.4001 15.497 10.9972 15.9 10.5001 15.9H7.5001C7.00304 15.9 6.6001 15.497 6.6001 15Z" fill="white"/>
</g>
</svg>
