<svg width="16" height="16" viewBox="0 0 16 16" fill="none" xmlns="http://www.w3.org/2000/svg">
<g id="Frame">
<path id="Vector" fill-rule="evenodd" clip-rule="evenodd" d="M1.6001 3.8002C1.6001 3.64107 1.66331 3.48845 1.77583 3.37593C1.88836 3.26341 2.04097 3.2002 2.2001 3.2002H13.8001C13.9592 3.2002 14.1118 3.26341 14.2244 3.37593C14.3369 3.48845 14.4001 3.64107 14.4001 3.8002C14.4001 3.95933 14.3369 4.11194 14.2244 4.22446C14.1118 4.33698 13.9592 4.4002 13.8001 4.4002H2.2001C2.04097 4.4002 1.88836 4.33698 1.77583 4.22446C1.66331 4.11194 1.6001 3.95933 1.6001 3.8002ZM1.6001 8.0002C1.6001 7.84107 1.66331 7.68845 1.77583 7.57593C1.88836 7.46341 2.04097 7.4002 2.2001 7.4002H13.8001C13.9592 7.4002 14.1118 7.46341 14.2244 7.57593C14.3369 7.68845 14.4001 7.84107 14.4001 8.0002C14.4001 8.15933 14.3369 8.31194 14.2244 8.42446C14.1118 8.53698 13.9592 8.6002 13.8001 8.6002H2.2001C2.04097 8.6002 1.88836 8.53698 1.77583 8.42446C1.66331 8.31194 1.6001 8.15933 1.6001 8.0002ZM1.6001 12.2002C1.6001 12.0411 1.66331 11.8885 1.77583 11.7759C1.88836 11.6634 2.04097 11.6002 2.2001 11.6002H13.8001C13.9592 11.6002 14.1118 11.6634 14.2244 11.7759C14.3369 11.8885 14.4001 12.0411 14.4001 12.2002C14.4001 12.3593 14.3369 12.5119 14.2244 12.6245C14.1118 12.737 13.9592 12.8002 13.8001 12.8002H2.2001C2.04097 12.8002 1.88836 12.737 1.77583 12.6245C1.66331 12.5119 1.6001 12.3593 1.6001 12.2002Z" fill="white"/>
</g>
</svg>
