<svg width="24" height="24" viewBox="0 0 24 24" fill="none" xmlns="http://www.w3.org/2000/svg">
<g id="bolt-slash">
<path id="Vector" d="M20.7988 11.0119L17.6108 14.4279L9.46282 6.27988L13.7028 1.73788C13.8172 1.61508 13.9694 1.53418 14.1352 1.50812C14.301 1.48206 14.4707 1.51235 14.6172 1.59414C14.7637 1.67592 14.8786 1.80448 14.9434 1.95926C15.0083 2.11403 15.0193 2.28608 14.9748 2.44788L12.9828 9.74988H20.2508C20.397 9.74989 20.54 9.7926 20.6622 9.87278C20.7844 9.95295 20.8805 10.0671 20.9387 10.2011C20.9969 10.3352 21.0147 10.4834 20.9899 10.6274C20.965 10.7714 20.8986 10.9051 20.7988 11.0119ZM3.20282 12.9879L6.39082 9.57188L14.5388 17.7199L10.2988 22.2619C10.1845 22.3847 10.0322 22.4656 9.86645 22.4916C9.70068 22.5177 9.53096 22.4874 9.38444 22.4056C9.23791 22.3238 9.12305 22.1953 9.05822 22.0405C8.99339 21.8857 8.98233 21.7137 9.02682 21.5519L11.0188 14.2499H3.75082C3.60466 14.2499 3.46169 14.2071 3.33948 14.127C3.21727 14.0468 3.12115 13.9327 3.06293 13.7986C3.00471 13.6645 2.98694 13.5164 3.01179 13.3723C3.03665 13.2283 3.10304 13.0947 3.20282 12.9879ZM3.53082 2.46988C3.38865 2.3374 3.2006 2.26527 3.0063 2.2687C2.812 2.27213 2.62661 2.35084 2.4892 2.48825C2.35179 2.62567 2.27308 2.81105 2.26965 3.00535C2.26622 3.19965 2.33834 3.3877 2.47082 3.52988L20.4708 21.5299C20.5395 21.6036 20.6223 21.6627 20.7143 21.7037C20.8063 21.7446 20.9056 21.7667 21.0063 21.7685C21.107 21.7702 21.207 21.7517 21.3004 21.714C21.3938 21.6763 21.4786 21.6201 21.5499 21.5489C21.6211 21.4777 21.6772 21.3929 21.7149 21.2995C21.7527 21.2061 21.7712 21.1061 21.7694 21.0054C21.7676 20.9047 21.7456 20.8053 21.7046 20.7133C21.6636 20.6213 21.6045 20.5385 21.5308 20.4699L3.53082 2.46988Z" fill="white"/>
</g>
</svg>
