<svg width="25" height="25" viewBox="0 0 25 25" fill="none" xmlns="http://www.w3.org/2000/svg">
<circle cx="12.5" cy="12.5" r="12.5" fill="#007A60"/>
<g clip-path="url(#clip0_5392_182202)">
<path d="M18.4438 6.09858C18.343 6.74399 17.4041 7.19816 17.086 7.33362C17.0782 7.33362 17.0627 7.34159 17.0549 7.34956C17.2023 7.25394 17.342 7.15832 17.4662 7.07067C17.5127 7.0388 17.5515 7.00693 17.5903 6.97506C17.6446 6.93522 17.6912 6.89538 17.7377 6.85554C17.7688 6.82367 17.7998 6.79179 17.8308 6.75992C19.2275 5.40536 17.986 4.2739 17.955 4.25C18.1102 4.73605 17.6834 5.26194 17.2489 5.65237C16.3255 6.40136 14.7349 7.40533 12.3683 7.99496C11.0027 8.234 9.76896 8.64834 8.84561 9.02284H8.83785C8.83785 9.02284 8.53524 9.13439 8.42661 9.0069C8.31022 8.87941 8.70594 8.48101 8.70594 8.48101C5.92037 9.39733 6.56439 11.461 6.56439 11.461C6.6187 11.3336 6.69629 11.23 6.77389 11.1264C6.80492 11.0945 6.8282 11.0547 6.85924 11.0228C6.92131 10.9591 6.99891 10.9033 7.06874 10.8475C7.99985 10.218 9.61378 10.5208 9.61378 10.5208C10.9406 10.7121 11.1036 10.728 11.1036 10.728C10.7544 13.1025 10.2966 17.3175 11.057 19.206C12.1821 21.6442 14.7349 20.4649 14.7349 20.4649C13.4624 19.4769 13.0434 17.198 12.9425 15.1104C12.9425 15.0467 12.9425 14.9909 12.9347 14.9271C12.9347 14.7837 12.9347 14.6403 12.927 14.4969C12.927 14.3853 12.927 14.2658 12.927 14.1542C12.927 12.3933 13.1055 10.9511 13.121 10.8395C15.1617 10.6244 16.2635 9.89932 16.8066 9.38936C16.8299 9.37343 16.8454 9.34953 16.8687 9.33359C16.8997 9.30969 16.923 9.27781 16.9463 9.25391C17.0782 9.11845 17.1635 9.0069 17.2101 8.93519C17.2334 8.90332 17.2411 8.88738 17.2489 8.87144C17.2567 8.85551 17.2644 8.83957 17.2644 8.83957C17.2644 8.83957 16.4031 9.26985 15.8212 9.23797L15.697 9.26985C19.1654 8.09058 18.4361 6.07467 18.4361 6.07467L18.4438 6.09858Z" fill="white"/>
</g>
<defs>
<clipPath id="clip0_5392_182202">
<rect width="18" height="18" fill="white" transform="translate(3.5 3.5)"/>
</clipPath>
</defs>
</svg>
