<svg width="30" height="30" viewBox="0 0 30 30" fill="none" xmlns="http://www.w3.org/2000/svg">
<g id="rocket-launch">
<g id="Vector">
<path fill-rule="evenodd" clip-rule="evenodd" d="M12.1232 10.2686C15.2089 6.30321 20.0304 3.75 25.4464 3.75C25.6595 3.75 25.8639 3.83466 26.0146 3.98536C26.1653 4.13606 26.25 4.34045 26.25 4.55357C26.25 9.97071 23.6968 14.7911 19.7314 17.8779C19.8963 18.911 19.8351 19.9676 19.5521 20.9747C19.269 21.9819 18.7708 22.9157 18.0918 23.7116C17.4128 24.5075 16.5692 25.1466 15.6192 25.5849C14.6692 26.0231 13.6355 26.2501 12.5893 26.25C12.3762 26.25 12.1718 26.1653 12.0211 26.0146C11.8704 25.8639 11.7857 25.6595 11.7857 25.4464V21.0204C10.7442 20.1979 9.80277 19.2561 8.98071 18.2143H4.55357C4.34045 18.2143 4.13606 18.1296 3.98536 17.9789C3.83466 17.8282 3.75 17.6238 3.75 17.4107C3.74992 16.3644 3.97686 15.3306 4.41517 14.3805C4.85348 13.4304 5.49271 12.5868 6.28876 11.9078C7.08481 11.2288 8.01871 10.7306 9.02601 10.4476C10.0333 10.1646 11.09 10.1035 12.1232 10.2686ZM18.2143 9.375C17.5749 9.375 16.9617 9.62899 16.5097 10.0811C16.0576 10.5332 15.8036 11.1464 15.8036 11.7857C15.8036 12.4251 16.0576 13.0382 16.5097 13.4903C16.9617 13.9424 17.5749 14.1964 18.2143 14.1964C18.8536 14.1964 19.4668 13.9424 19.9189 13.4903C20.371 13.0382 20.625 12.4251 20.625 11.7857C20.625 11.1464 20.371 10.5332 19.9189 10.0811C19.4668 9.62899 18.8536 9.375 18.2143 9.375Z" fill="#007A60"/>
<path d="M7.77857 20.6164C7.8632 20.5533 7.93458 20.4742 7.98862 20.3835C8.04266 20.2928 8.07831 20.1923 8.09353 20.0879C8.10875 19.9834 8.10325 19.877 8.07734 19.7746C8.05142 19.6723 8.0056 19.5761 7.9425 19.4914C7.8794 19.4068 7.80024 19.3354 7.70955 19.2814C7.61886 19.2273 7.51842 19.1917 7.41395 19.1765C7.30948 19.1612 7.20304 19.1667 7.1007 19.1927C6.99837 19.2186 6.90213 19.2644 6.8175 19.3275C5.9956 19.9389 5.35651 20.7634 4.96937 21.7117C4.58224 22.6601 4.4618 23.6963 4.62107 24.7082C4.64697 24.8768 4.72582 25.0327 4.8462 25.1534C4.96658 25.2742 5.12226 25.3536 5.29071 25.38C6.30271 25.5392 7.33897 25.4185 8.28736 25.0312C9.23576 24.6439 10.0602 24.0046 10.6714 23.1825C10.7366 23.0981 10.7843 23.0016 10.8117 22.8985C10.8392 22.7955 10.8459 22.6881 10.8314 22.5824C10.8169 22.4768 10.7816 22.3751 10.7274 22.2833C10.6732 22.1914 10.6013 22.1113 10.5159 22.0475C10.4304 21.9838 10.3331 21.9377 10.2297 21.9119C10.1262 21.8861 10.0187 21.8811 9.91329 21.8973C9.80791 21.9135 9.7068 21.9505 9.61586 22.0061C9.52491 22.0618 9.44595 22.135 9.38357 22.2214C9.00993 22.7239 8.52383 23.132 7.96419 23.4129C7.40455 23.6939 6.78691 23.8399 6.16071 23.8393C6.16071 22.5214 6.795 21.3504 7.77857 20.6164Z" fill="#007A60"/>
</g>
</g>
</svg>
