<svg width="30" height="30" viewBox="0 0 30 30" fill="none" xmlns="http://www.w3.org/2000/svg">
<g id="gift">
<path id="Vector (Stroke)" fill-rule="evenodd" clip-rule="evenodd" d="M10.8957 1.95606C11.7141 1.79328 12.5623 1.87683 13.3332 2.19614C13.986 2.46652 14.5584 2.89568 15 3.4421C15.4416 2.89568 16.014 2.46652 16.6668 2.19614C17.4377 1.87683 18.2859 1.79328 19.1043 1.95606C19.9226 2.11885 20.6744 2.52064 21.2644 3.11065C21.8544 3.70065 22.2562 4.45236 22.4189 5.27071C22.5817 6.08907 22.4982 6.93732 22.1789 7.7082C22.0726 7.96472 21.9418 8.20885 21.7891 8.4375H26.7188C28.0128 8.4375 29.0625 9.48724 29.0625 10.7813V12.6563C29.0625 13.7897 28.257 14.7358 27.1875 14.9531V24.375C27.1875 25.1209 26.8912 25.8363 26.3637 26.3637C25.8363 26.8912 25.1209 27.1875 24.375 27.1875H6.5625C5.81658 27.1875 5.10121 26.8912 4.57376 26.3637C4.04632 25.8363 3.75 25.1209 3.75 24.375V14.9531C2.68045 14.7358 1.875 13.7897 1.875 12.6563V10.7813C1.875 9.48724 2.92473 8.4375 4.21875 8.4375H8.21094C8.05817 8.20885 7.92739 7.96472 7.82113 7.7082C7.50183 6.93732 7.41828 6.08907 7.58106 5.27071C7.74384 4.45236 8.14564 3.70065 8.73564 3.11065C9.32565 2.52064 10.0774 2.11885 10.8957 1.95606ZM11.7188 8.4375H14.0625V6.09375C14.0625 5.6302 13.925 5.17706 13.6675 4.79163C13.41 4.40621 13.0439 4.1058 12.6157 3.92841C12.1874 3.75102 11.7162 3.7046 11.2615 3.79504C10.8069 3.88547 10.3892 4.10869 10.0615 4.43647C9.73369 4.76425 9.51047 5.18187 9.42003 5.63651C9.3296 6.09115 9.37601 6.5624 9.55341 6.99067C9.7308 7.41893 10.0312 7.78497 10.4166 8.04251C10.8021 8.30004 11.2552 8.4375 11.7188 8.4375ZM14.0625 10.3125H4.21875C3.96027 10.3125 3.75 10.5228 3.75 10.7813V12.6563C3.75 12.9147 3.96027 13.125 4.21875 13.125H14.0625V10.3125ZM15.9375 13.125V10.3125H26.7188C26.9772 10.3125 27.1875 10.5228 27.1875 10.7813V12.6563C27.1875 12.9147 26.9772 13.125 26.7188 13.125H15.9375ZM14.0625 15H5.625V24.375C5.625 24.6236 5.72377 24.8621 5.89959 25.0379C6.0754 25.2137 6.31386 25.3125 6.5625 25.3125H14.0625V15ZM15.9375 25.3125V15H25.3125V24.375C25.3125 24.6236 25.2137 24.8621 25.0379 25.0379C24.8621 25.2137 24.6236 25.3125 24.375 25.3125H15.9375ZM15.9375 8.4375V6.09375C15.9375 5.6302 16.075 5.17706 16.3325 4.79163C16.59 4.40621 16.9561 4.1058 17.3843 3.92841C17.8126 3.75102 18.2838 3.7046 18.7385 3.79504C19.1931 3.88547 19.6108 4.10869 19.9385 4.43647C20.2663 4.76425 20.4895 5.18187 20.58 5.63651C20.6704 6.09115 20.624 6.5624 20.4466 6.99067C20.2692 7.41893 19.9688 7.78497 19.5834 8.04251C19.1979 8.30004 18.7448 8.4375 18.2812 8.4375H15.9375Z" fill="#007A60"/>
</g>
</svg>
