<svg width="20" height="20" viewBox="0 0 20 20" fill="none" xmlns="http://www.w3.org/2000/svg">
<g id="solid/exclamation-triangle">
<path id="Vector" fill-rule="evenodd" clip-rule="evenodd" d="M7.83391 2.50244C8.79641 0.835775 11.2031 0.835775 12.1647 2.50244L18.2939 13.1258C19.2556 14.7924 18.0522 16.8758 16.1281 16.8758H3.87058C1.94641 16.8758 0.743909 14.7924 1.70558 13.1258L7.83308 2.50244H7.83391ZM9.99974 6.87494C10.1655 6.87494 10.3245 6.94079 10.4417 7.058C10.5589 7.17521 10.6247 7.33418 10.6247 7.49994V10.6249C10.6247 10.7907 10.5589 10.9497 10.4417 11.0669C10.3245 11.1841 10.1655 11.2499 9.99974 11.2499C9.83398 11.2499 9.67501 11.1841 9.5578 11.0669C9.44059 10.9497 9.37474 10.7907 9.37474 10.6249V7.49994C9.37474 7.33418 9.44059 7.17521 9.5578 7.058C9.67501 6.94079 9.83398 6.87494 9.99974 6.87494ZM9.99974 13.7499C10.1655 13.7499 10.3245 13.6841 10.4417 13.5669C10.5589 13.4497 10.6247 13.2907 10.6247 13.1249C10.6247 12.9592 10.5589 12.8002 10.4417 12.683C10.3245 12.5658 10.1655 12.4999 9.99974 12.4999C9.83398 12.4999 9.67501 12.5658 9.5578 12.683C9.44059 12.8002 9.37474 12.9592 9.37474 13.1249C9.37474 13.2907 9.44059 13.4497 9.5578 13.5669C9.67501 13.6841 9.83398 13.7499 9.99974 13.7499Z" fill="white"/>
</g>
</svg>
