<svg width="24" height="24" viewBox="0 0 24 24" fill="none" xmlns="http://www.w3.org/2000/svg">
<g id="arrow-path">
<path id="Vector" fill-rule="evenodd" clip-rule="evenodd" d="M4.75538 10.0586C5.09586 8.78669 5.76516 7.62688 6.69601 6.6957C7.62685 5.76452 8.78642 5.0948 10.0582 4.75386C11.3299 4.41292 12.669 4.41277 13.9408 4.75344C15.2126 5.09411 16.3723 5.76358 17.3034 6.69456L19.2064 8.59756H16.0234C15.8245 8.59756 15.6337 8.67657 15.493 8.81723C15.3524 8.95788 15.2734 9.14864 15.2734 9.34756C15.2734 9.54647 15.3524 9.73723 15.493 9.87789C15.6337 10.0185 15.8245 10.0976 16.0234 10.0976H21.0154C21.2143 10.0976 21.4051 10.0185 21.5457 9.87789C21.6864 9.73723 21.7654 9.54647 21.7654 9.34756V4.35556C21.7654 4.15664 21.6864 3.96588 21.5457 3.82523C21.4051 3.68457 21.2143 3.60556 21.0154 3.60556C20.8165 3.60556 20.6257 3.68457 20.485 3.82523C20.3444 3.96588 20.2654 4.15664 20.2654 4.35556V7.53556L18.3654 5.63556C17.2483 4.51801 15.8568 3.71424 14.3306 3.30506C12.8044 2.89588 11.1974 2.89571 9.67114 3.30456C8.14487 3.71342 6.75313 4.51689 5.63587 5.6342C4.5186 6.75151 3.71518 8.14327 3.30638 9.66956C3.2809 9.76476 3.27442 9.86406 3.28732 9.96177C3.30022 10.0595 3.33224 10.1537 3.38154 10.239C3.43085 10.3244 3.49649 10.3992 3.5747 10.4591C3.65291 10.5191 3.74217 10.5631 3.83737 10.5886C3.93258 10.614 4.03188 10.6205 4.12959 10.6076C4.2273 10.5947 4.32151 10.5627 4.40685 10.5134C4.49219 10.4641 4.56698 10.3984 4.62695 10.3202C4.68692 10.242 4.7309 10.1528 4.75638 10.0576L4.75538 10.0586ZM20.1634 13.4106C20.0682 13.385 19.969 13.3784 19.8713 13.3912C19.7736 13.404 19.6794 13.436 19.5941 13.4852C19.5087 13.5344 19.4339 13.5999 19.3739 13.6781C19.3139 13.7562 19.2699 13.8454 19.2444 13.9406C18.9039 15.2124 18.2346 16.3722 17.3037 17.3034C16.3729 18.2346 15.2133 18.9043 13.9416 19.2453C12.6698 19.5862 11.3308 19.5863 10.059 19.2457C8.78714 18.905 7.62742 18.2355 6.69637 17.3046L4.79438 15.4016H7.97738C8.17629 15.4016 8.36705 15.3225 8.5077 15.1819C8.64836 15.0412 8.72738 14.8505 8.72738 14.6516C8.72738 14.4526 8.64836 14.2619 8.5077 14.1212C8.36705 13.9806 8.17629 13.9016 7.97738 13.9016H2.98438C2.78546 13.9016 2.5947 13.9806 2.45405 14.1212C2.31339 14.2619 2.23438 14.4526 2.23438 14.6516V19.6436C2.23438 19.8425 2.31339 20.0332 2.45405 20.1739C2.5947 20.3145 2.78546 20.3936 2.98438 20.3936C3.18329 20.3936 3.37405 20.3145 3.51471 20.1739C3.65536 20.0332 3.73438 19.8425 3.73438 19.6436V16.4636L5.63437 18.3636C6.75147 19.4811 8.14311 20.2848 9.66935 20.694C11.1956 21.1031 12.8027 21.1032 14.3289 20.6942C15.8552 20.2852 17.2469 19.4816 18.3642 18.3642C19.4814 17.2468 20.2847 15.8549 20.6934 14.3286C20.7447 14.1365 20.7177 13.932 20.6183 13.7599C20.519 13.5878 20.3553 13.4621 20.1634 13.4106Z" fill="white"/>
</g>
</svg>
