<svg xmlns="http://www.w3.org/2000/svg" width="16" height="16" viewBox="0 0 16 16" fill="none">
<g id="Checkboxes">
<path d="M0.5 4C0.5 2.067 2.067 0.5 4 0.5H12C13.933 0.5 15.5 2.067 15.5 4V12C15.5 13.933 13.933 15.5 12 15.5H4C2.067 15.5 0.5 13.933 0.5 12V4Z" fill="#102649"/>
<path d="M0.5 4C0.5 2.067 2.067 0.5 4 0.5H12C13.933 0.5 15.5 2.067 15.5 4V12C15.5 13.933 13.933 15.5 12 15.5H4C2.067 15.5 0.5 13.933 0.5 12V4Z" stroke="#102649" fill="#102649"/>
<path id="Icon" d="M12.2064 4.79303C12.3939 4.98056 12.4992 5.23487 12.4992 5.50003C12.4992 5.76519 12.3939 6.0195 12.2064 6.20703L7.20643 11.207C7.0189 11.3945 6.76459 11.4998 6.49943 11.4998C6.23427 11.4998 5.97996 11.3945 5.79243 11.207L3.79243 9.20703C3.61027 9.01843 3.50948 8.76583 3.51176 8.50363C3.51403 8.24143 3.6192 7.99062 3.80461 7.80521C3.99002 7.6198 4.24083 7.51463 4.50303 7.51236C4.76523 7.51008 5.01783 7.61087 5.20643 7.79303L6.49943 9.08603L10.7924 4.79303C10.98 4.60556 11.2343 4.50024 11.4994 4.50024C11.7646 4.50024 12.0189 4.60556 12.2064 4.79303Z" fill="white"/>
</g>
</svg>