<svg width="28" height="28" viewBox="0 0 28 28" fill="none" xmlns="http://www.w3.org/2000/svg">
<g id="text" clip-path="url(#clip0_1601_43654)">
<g id="Vector">
<path d="M14 19.25H13.1V8.75H16.7V9.625C16.7 10.115 17.096 10.5 17.6 10.5C18.104 10.5 18.5 10.115 18.5 9.625V7.875C18.5 7.385 18.104 7 17.6 7H5.9C5.396 7 5 7.385 5 7.875V9.625C5 10.115 5.396 10.5 5.9 10.5C6.404 10.5 6.8 10.115 6.8 9.625V8.75H11.3V19.25H10.4C9.896 19.25 9.5 19.635 9.5 20.125C9.5 20.615 9.896 21 10.4 21H14C14.504 21 14.9 20.615 14.9 20.125C14.9 19.635 14.504 19.25 14 19.25Z" fill="#007A60"/>
<path d="M22.1008 13.125H16.7008C16.1968 13.125 15.8008 13.51 15.8008 14V14.875C15.8008 15.365 16.1968 15.75 16.7008 15.75C17.2048 15.75 17.6008 15.365 17.6008 14.875H18.5008V19.25C17.9968 19.25 17.6008 19.635 17.6008 20.125C17.6008 20.615 17.9968 21 18.5008 21H20.3008C20.8048 21 21.2008 20.615 21.2008 20.125C21.2008 19.635 20.8048 19.25 20.3008 19.25V14.875H21.2008C21.2008 15.365 21.5968 15.75 22.1008 15.75C22.6048 15.75 23.0008 15.365 23.0008 14.875V14C23.0008 13.51 22.6048 13.125 22.1008 13.125Z" fill="#007A60"/>
<path fill-rule="evenodd" clip-rule="evenodd" d="M21 2H7C4.23858 2 2 4.23858 2 7V21C2 23.7614 4.23858 26 7 26H21C23.7614 26 26 23.7614 26 21V7C26 4.23858 23.7614 2 21 2ZM7 0C3.13401 0 0 3.13401 0 7V21C0 24.866 3.13401 28 7 28H21C24.866 28 28 24.866 28 21V7C28 3.13401 24.866 0 21 0H7Z" fill="#007A60"/>
</g>
</g>
<defs>
<clipPath id="clip0_1601_43654">
<rect width="28" height="28" fill="white"/>
</clipPath>
</defs>
</svg>
