<svg width="20" height="20" viewBox="0 0 20 20" fill="none" xmlns="http://www.w3.org/2000/svg">
<g id="mini/chevron-right">
<path id="Vector" fill-rule="evenodd" clip-rule="evenodd" d="M7.86404 4.26394C8.03279 4.0954 8.26154 4.00073 8.50004 4.00073C8.73854 4.00073 8.96729 4.0954 9.13604 4.26394L14.236 9.36394C14.4046 9.53269 14.4992 9.76144 14.4992 9.99994C14.4992 10.2384 14.4046 10.4672 14.236 10.6359L9.13604 15.7359C8.96543 15.8949 8.73977 15.9815 8.50661 15.9774C8.27345 15.9732 8.05099 15.8788 7.88609 15.7139C7.7212 15.549 7.62674 15.3265 7.62263 15.0934C7.61851 14.8602 7.70506 14.6346 7.86404 14.4639L12.328 9.99994L7.86404 5.53594C7.6955 5.36719 7.60083 5.13844 7.60083 4.89994C7.60083 4.66144 7.6955 4.43269 7.86404 4.26394Z" fill="white"/>
</g>
</svg>
