<svg width="24" height="24" viewBox="0 0 24 24" fill="none" xmlns="http://www.w3.org/2000/svg">
<g id="x-mark">
<path id="Vector" fill-rule="evenodd" clip-rule="evenodd" d="M5.46934 5.47015C5.60997 5.3297 5.80059 5.25081 5.99934 5.25081C6.19809 5.25081 6.38871 5.3297 6.52934 5.47015L11.9993 10.9402L17.4693 5.47015C17.538 5.39647 17.6208 5.33736 17.7128 5.29637C17.8048 5.25538 17.9041 5.23334 18.0048 5.23156C18.1055 5.22979 18.2055 5.24831 18.2989 5.28603C18.3923 5.32375 18.4772 5.3799 18.5484 5.45112C18.6196 5.52233 18.6757 5.60717 18.7135 5.70056C18.7512 5.79394 18.7697 5.89397 18.7679 5.99468C18.7662 6.09538 18.7441 6.19469 18.7031 6.28669C18.6621 6.37869 18.603 6.46149 18.5293 6.53015L13.0593 12.0002L18.5293 17.4702C18.603 17.5388 18.6621 17.6216 18.7031 17.7136C18.7441 17.8056 18.7662 17.9049 18.7679 18.0056C18.7697 18.1063 18.7512 18.2064 18.7135 18.2998C18.6757 18.3931 18.6196 18.478 18.5484 18.5492C18.4772 18.6204 18.3923 18.6766 18.2989 18.7143C18.2055 18.752 18.1055 18.7705 18.0048 18.7687C17.9041 18.767 17.8048 18.7449 17.7128 18.7039C17.6208 18.6629 17.538 18.6038 17.4693 18.5302L11.9993 13.0602L6.52934 18.5302C6.38717 18.6626 6.19912 18.7348 6.00482 18.7313C5.81052 18.7279 5.62513 18.6492 5.48772 18.5118C5.35031 18.3744 5.27159 18.189 5.26817 17.9947C5.26474 17.8004 5.33686 17.6123 5.46934 17.4702L10.9393 12.0002L5.46934 6.53015C5.32889 6.38953 5.25 6.1989 5.25 6.00015C5.25 5.8014 5.32889 5.61078 5.46934 5.47015Z" fill="white"/>
</g>
</svg>
