<svg width="31" height="30" viewBox="0 0 31 30" fill="none" xmlns="http://www.w3.org/2000/svg">
<g id="ticket">
<path id="Vector (Stroke)" fill-rule="evenodd" clip-rule="evenodd" d="M2.1875 7.96875C2.1875 6.57118 3.32118 5.4375 4.71875 5.4375H26.2812C27.6788 5.4375 28.8125 6.57118 28.8125 7.96875V11.7512C28.8125 12.1537 28.5976 12.5254 28.2488 12.7262C27.8492 12.9563 27.5173 13.2876 27.2865 13.6868C27.0558 14.0859 26.9342 14.5389 26.9342 15C26.9342 15.4611 27.0558 15.914 27.2865 16.3132C27.5173 16.7124 27.8492 17.0437 28.2488 17.2738C28.5976 17.4746 28.8125 17.8463 28.8125 18.2487V22.0312C28.8125 23.4288 27.6788 24.5625 26.2812 24.5625H4.71875C3.32118 24.5625 2.1875 23.4288 2.1875 22.0312V18.2487C2.1875 17.8463 2.40243 17.4746 2.75116 17.2738C3.15076 17.0437 3.48267 16.7124 3.71346 16.3132C3.94424 15.914 4.06576 15.4611 4.06576 15C4.06576 14.5389 3.94424 14.086 3.71346 13.6868C3.48267 13.2876 3.15076 12.9563 2.75116 12.7262C2.40243 12.5254 2.1875 12.1537 2.1875 11.7512V7.96875ZM4.71875 7.6875C4.56382 7.6875 4.4375 7.81382 4.4375 7.96875V11.1555C4.93036 11.5395 5.3465 12.016 5.66134 12.5606C6.09004 13.3021 6.31575 14.1435 6.31575 15C6.31575 15.8565 6.09004 16.6979 5.66134 17.4394C5.3465 17.984 4.93036 18.4605 4.4375 18.8445V22.0312C4.4375 22.1862 4.56382 22.3125 4.71875 22.3125H20V21.5625C20 20.9412 20.5037 20.4375 21.125 20.4375C21.7463 20.4375 22.25 20.9412 22.25 21.5625V22.3125H26.2812C26.4362 22.3125 26.5625 22.1862 26.5625 22.0312V18.8445C26.0696 18.4605 25.6535 17.984 25.3387 17.4394C24.91 16.6979 24.6842 15.8565 24.6842 15C24.6842 14.1435 24.91 13.3021 25.3387 12.5606C25.6535 12.016 26.0696 11.5395 26.5625 11.1555V7.96875C26.5625 7.81382 26.4362 7.6875 26.2812 7.6875H22.25V8.4375C22.25 9.05882 21.7463 9.5625 21.125 9.5625C20.5037 9.5625 20 9.05882 20 8.4375V7.6875H4.71875ZM21.125 11.0625C21.7463 11.0625 22.25 11.5662 22.25 12.1875V13.125C22.25 13.7463 21.7463 14.25 21.125 14.25C20.5037 14.25 20 13.7463 20 13.125V12.1875C20 11.5662 20.5037 11.0625 21.125 11.0625ZM8.75 15.9375C8.75 15.3162 9.25368 14.8125 9.875 14.8125H16.4375C17.0588 14.8125 17.5625 15.3162 17.5625 15.9375C17.5625 16.5588 17.0588 17.0625 16.4375 17.0625H9.875C9.25368 17.0625 8.75 16.5588 8.75 15.9375ZM21.125 15.75C21.7463 15.75 22.25 16.2537 22.25 16.875V17.8125C22.25 18.4338 21.7463 18.9375 21.125 18.9375C20.5037 18.9375 20 18.4338 20 17.8125V16.875C20 16.2537 20.5037 15.75 21.125 15.75ZM8.75 18.75C8.75 18.1287 9.25368 17.625 9.875 17.625H13.625C14.2463 17.625 14.75 18.1287 14.75 18.75C14.75 19.3713 14.2463 19.875 13.625 19.875H9.875C9.25368 19.875 8.75 19.3713 8.75 18.75Z" fill="#007A60"/>
</g>
</svg>
