<svg width="66" height="66" viewBox="0 0 66 66" fill="none" xmlns="http://www.w3.org/2000/svg">
<g opacity="0.8">
<path fill-rule="evenodd" clip-rule="evenodd" d="M11 8.25C9.54131 8.25 8.14236 8.82946 7.11091 9.86091C6.07946 10.8924 5.5 12.2913 5.5 13.75V52.25C5.5 53.7087 6.07946 55.1076 7.11091 56.1391C8.14236 57.1705 9.54131 57.75 11 57.75H55C56.4587 57.75 57.8576 57.1705 58.8891 56.1391C59.9205 55.1076 60.5 53.7087 60.5 52.25V13.75C60.5 12.2913 59.9205 10.8924 58.8891 9.86091C57.8576 8.82946 56.4587 8.25 55 8.25H11ZM23.7188 23.7325C23.7798 23.2067 23.9628 22.7025 24.2533 22.2601C24.5438 21.8177 24.9337 21.4492 25.3919 21.1842C25.85 20.9192 26.3638 20.7649 26.8921 20.7337C27.4205 20.7025 27.9488 20.7953 28.435 21.0045C29.821 21.5985 32.747 22.935 36.454 25.0745C39.0592 26.5634 41.5752 28.2034 43.989 29.986C44.4134 30.3018 44.7581 30.7124 44.9956 31.1851C45.233 31.6578 45.3567 32.1795 45.3567 32.7085C45.3567 33.2375 45.233 33.7592 44.9956 34.2319C44.7581 34.7046 44.4134 35.1152 43.989 35.431C41.575 37.2117 39.0591 38.8498 36.454 40.337C33.8627 41.8506 31.1851 43.2114 28.435 44.4125C27.9489 44.6224 27.4204 44.7155 26.8918 44.6846C26.3633 44.6537 25.8493 44.4995 25.3909 44.2344C24.9326 43.9693 24.5427 43.6006 24.2523 43.1578C23.962 42.7151 23.7792 42.2105 23.7188 41.6845C23.3888 38.704 23.2272 35.7072 23.2348 32.7085C23.2348 28.4433 23.5428 25.2313 23.7188 23.7325Z" fill="white"/>
</g>
</svg>
