<svg width="12" height="11" viewBox="0 0 12 11" fill="none" xmlns="http://www.w3.org/2000/svg">
<path d="M8.7002 0.5C10.2369 0.500098 11.5 1.64547 11.5 3.31543C11.4999 4.27642 11.0584 5.18259 10.1895 6.2373C9.31596 7.29758 8.0752 8.4325 6.56348 9.875L6 10.3467L5.43555 9.875C3.92406 8.43274 2.68394 7.29746 1.81055 6.2373C0.941643 5.18259 0.50011 4.27642 0.5 3.31543C0.5 1.78127 1.77818 0.50011 3.2998 0.5C4.22251 0.5 5.11785 0.900974 5.6084 1.5166L6 2.00781L6.3916 1.5166C6.88215 0.900974 7.77749 0.5 8.7002 0.5Z" stroke="white"/>
</svg>
