<svg width="27" height="27" viewBox="0 0 27 27" fill="none" xmlns="http://www.w3.org/2000/svg">
<path d="M19.125 24.75C18.1875 24.75 17.3906 24.4219 16.7344 23.7656C16.0781 23.1094 15.75 22.3125 15.75 21.375C15.75 21.2625 15.7781 21 15.8344 20.5875L7.93125 15.975C7.63125 16.2562 7.28438 16.4768 6.89062 16.6365C6.49687 16.7963 6.075 16.8757 5.625 16.875C4.6875 16.875 3.89062 16.5469 3.23438 15.8906C2.57813 15.2344 2.25 14.4375 2.25 13.5C2.25 12.5625 2.57813 11.7656 3.23438 11.1094C3.89062 10.4531 4.6875 10.125 5.625 10.125C6.075 10.125 6.49687 10.2049 6.89062 10.3646C7.28438 10.5244 7.63125 10.7445 7.93125 11.025L15.8344 6.4125C15.7969 6.28125 15.7736 6.15487 15.7646 6.03337C15.7556 5.91188 15.7507 5.77575 15.75 5.625C15.75 4.6875 16.0781 3.89062 16.7344 3.23438C17.3906 2.57813 18.1875 2.25 19.125 2.25C20.0625 2.25 20.8594 2.57813 21.5156 3.23438C22.1719 3.89062 22.5 4.6875 22.5 5.625C22.5 6.5625 22.1719 7.35938 21.5156 8.01562C20.8594 8.67188 20.0625 9 19.125 9C18.675 9 18.2531 8.92013 17.8594 8.76038C17.4656 8.60063 17.1187 8.3805 16.8187 8.1L8.91563 12.7125C8.95312 12.8438 8.97675 12.9705 8.9865 13.0927C8.99625 13.215 9.00075 13.3507 9 13.5C8.99925 13.6493 8.99475 13.7854 8.9865 13.9084C8.97825 14.0314 8.95463 14.1578 8.91563 14.2875L16.8187 18.9C17.1187 18.6187 17.4656 18.3986 17.8594 18.2396C18.2531 18.0806 18.675 18.0007 19.125 18C20.0625 18 20.8594 18.3281 21.5156 18.9844C22.1719 19.6406 22.5 20.4375 22.5 21.375C22.5 22.3125 22.1719 23.1094 21.5156 23.7656C20.8594 24.4219 20.0625 24.75 19.125 24.75Z" fill="white"/>
</svg>
