<svg width="27" height="27" viewBox="0 0 27 27" fill="none" xmlns="http://www.w3.org/2000/svg">
<path d="M6.25 23C5.63125 23 5.10175 22.7739 4.6615 22.3216C4.22125 21.8693 4.00075 21.325 4 20.6886V18.3772C4 18.0498 4.108 17.7755 4.324 17.5544C4.54 17.3332 4.807 17.2223 5.125 17.2215C5.443 17.2207 5.71037 17.3317 5.92712 17.5544C6.14387 17.777 6.2515 18.0513 6.25 18.3772V20.6886H19.75V18.3772C19.75 18.0498 19.858 17.7755 20.074 17.5544C20.29 17.3332 20.557 17.2223 20.875 17.2215C21.193 17.2207 21.4604 17.3317 21.6771 17.5544C21.8939 17.777 22.0015 18.0513 22 18.3772V20.6886C22 21.3242 21.7799 21.8686 21.3396 22.3216C20.8994 22.7746 20.3695 23.0008 19.75 23H6.25ZM11.875 8.95828L9.76562 11.1252C9.54062 11.3564 9.27362 11.4673 8.96462 11.4581C8.65562 11.4488 8.38825 11.3282 8.1625 11.0963C7.95625 10.8652 7.84825 10.5955 7.8385 10.2873C7.82875 9.97915 7.93675 9.70948 8.1625 9.47834L12.2125 5.31783C12.325 5.20226 12.4469 5.1206 12.5781 5.07283C12.7094 5.02506 12.85 5.00079 13 5.00002C13.15 4.99925 13.2906 5.02352 13.4219 5.07283C13.5531 5.12214 13.675 5.20381 13.7875 5.31783L17.8375 9.47834C18.0625 9.70948 18.1705 9.97915 18.1615 10.2873C18.1525 10.5955 18.0445 10.8652 17.8375 11.0963C17.6125 11.3275 17.3455 11.448 17.0365 11.4581C16.7275 11.4681 16.4601 11.3571 16.2344 11.1252L14.125 8.95828V17.2215C14.125 17.549 14.017 17.8236 13.801 18.0455C13.585 18.2674 13.318 18.378 13 18.3772C12.682 18.3764 12.415 18.2655 12.199 18.0444C11.983 17.8232 11.875 17.549 11.875 17.2215V8.95828Z" fill="white"/>
</svg>
